<?xml version="1.0" encoding="utf-8" standalone="no"?>
<!DOCTYPE svg PUBLIC "-//W3C//DTD SVG 1.1//EN"
  "http://www.w3.org/Graphics/SVG/1.1/DTD/svg11.dtd">
<!-- Created with matplotlib (https://matplotlib.org/) -->
<svg height="288pt" version="1.1" viewBox="0 0 432 288" width="432pt" xmlns="http://www.w3.org/2000/svg" xmlns:xlink="http://www.w3.org/1999/xlink">
 <defs>
  <style type="text/css">
*{stroke-linecap:butt;stroke-linejoin:round;}
  </style>
 </defs>
 <g id="figure_1">
  <g id="patch_1">
   <path d="M 0 288 
L 432 288 
L 432 0 
L 0 0 
z
" style="fill:#ffffff;"/>
  </g>
  <g id="axes_1">
   <g id="patch_2">
    <path d="M 54 252 
L 388.8 252 
L 388.8 34.56 
L 54 34.56 
z
" style="fill:#ffffff;"/>
   </g>
   <g id="Quiver_1">
    <path clip-path="url(#p4297f3ac17)" d="M 66.841056 239.805936 
L 68.590913 232.033479 
L 66.773953 232.482366 
L 71.062009 224.868261 
L 71.673322 233.585389 
L 70.224036 232.401153 
L 68.474179 240.17361 
L 66.841056 239.805936 
" style="fill:#471365;fill-opacity:0.3;"/>
    <path clip-path="url(#p4297f3ac17)" d="M 89.26487 231.605917 
L 97.231858 231.591629 
L 96.391857 229.919133 
L 104.766347 232.415118 
L 96.400863 234.941125 
L 97.23486 233.265626 
L 89.267873 233.279915 
L 89.26487 231.605917 
" style="fill:#481d6f;fill-opacity:0.3;"/>
    <path clip-path="url(#p4297f3ac17)" d="M 116.926234 231.561746 
L 124.893173 231.592871 
L 124.06272 229.915614 
L 132.422846 232.459294 
L 124.0431 234.937576 
L 124.886633 233.266858 
L 116.919694 233.235733 
L 116.926234 231.561746 
" style="fill:#481f70;fill-opacity:0.3;"/>
    <path clip-path="url(#p4297f3ac17)" d="M 144.584933 231.542726 
L 152.551772 231.593415 
L 151.725439 229.914123 
L 160.079294 232.478325 
L 151.693487 234.936022 
L 152.541121 233.267381 
L 144.574282 233.216692 
L 144.584933 231.542726 
" style="fill:#481d6f;fill-opacity:0.3;"/>
    <path clip-path="url(#p4297f3ac17)" d="M 172.243265 231.527252 
L 180.209987 231.59386 
L 179.387012 229.912921 
L 187.735726 232.493811 
L 179.345025 234.934746 
L 180.195991 233.267802 
L 172.22927 233.201194 
L 172.243265 231.527252 
" style="fill:#481b6d;fill-opacity:0.3;"/>
    <path clip-path="url(#p4297f3ac17)" d="M 199.901841 231.509993 
L 207.868394 231.594362 
L 207.049169 229.911592 
L 215.392108 232.511088 
L 206.995986 234.933311 
L 207.850667 233.268268 
L 199.884114 233.183899 
L 199.901841 231.509993 
" style="fill:#48186a;fill-opacity:0.3;"/>
    <path clip-path="url(#p4297f3ac17)" d="M 227.561176 231.486794 
L 235.527441 231.595043 
L 234.713263 229.909825 
L 243.048373 232.534317 
L 234.645028 234.931361 
L 235.504696 233.268888 
L 227.538432 233.160639 
L 227.561176 231.486794 
" style="fill:#481467;fill-opacity:0.3;"/>
    <path clip-path="url(#p4297f3ac17)" d="M 255.222235 231.450445 
L 263.187903 231.596125 
L 262.381653 229.9071 
L 270.704339 232.570729 
L 262.289823 234.92826 
L 263.157293 233.269845 
L 255.191625 233.124165 
L 255.222235 231.450445 
" style="fill:#471063;fill-opacity:0.3;"/>
    <path clip-path="url(#p4297f3ac17)" d="M 282.887837 231.381361 
L 290.851884 231.598234 
L 290.060763 229.90207 
L 298.359309 232.639983 
L 289.924057 234.922209 
L 290.806316 233.271614 
L 282.842268 233.054741 
L 282.887837 231.381361 
" style="fill:#460b5e;fill-opacity:0.3;"/>
    <path clip-path="url(#p4297f3ac17)" d="M 310.572509 231.191559 
L 318.528806 231.604386 
L 317.779672 229.889264 
L 326.008315 232.830599 
L 317.519447 234.904517 
L 318.442064 233.276137 
L 310.485767 232.86331 
L 310.572509 231.191559 
" style="fill:#450559;fill-opacity:0.3;"/>
    <path clip-path="url(#p4297f3ac17)" d="M 339.288251 228.340861 
L 346.481095 231.766658 
L 346.445244 229.895413 
L 352.922202 235.761505 
L 344.285792 234.429423 
L 345.761278 233.277995 
L 338.568434 229.852198 
L 339.288251 228.340861 
" style="fill:#440154;fill-opacity:0.3;"/>
    <path clip-path="url(#p4297f3ac17)" d="M 381.370435 232.746056 
L 373.421257 233.278651 
L 374.368292 234.892953 
L 365.849155 232.947105 
L 374.032571 229.882187 
L 373.30935 231.608396 
L 381.258528 231.075801 
L 381.370435 232.746056 
" style="fill:#450457;fill-opacity:0.3;"/>
    <path clip-path="url(#p4297f3ac17)" d="M 69.23515 223.133507 
L 68.506474 215.1999 
L 66.916044 216.186499 
L 68.650985 207.62192 
L 71.916995 215.727178 
L 70.173458 215.046793 
L 70.902133 222.9804 
L 69.23515 223.133507 
" style="fill:#472e7c;fill-opacity:0.3;"/>
    <path clip-path="url(#p4297f3ac17)" d="M 89.260745 214.556165 
L 97.227553 214.500953 
L 96.378973 212.832794 
L 104.766173 215.285729 
L 96.413775 217.854673 
L 97.239154 216.174913 
L 89.272346 216.230125 
L 89.260745 214.556165 
" style="fill:#481668;fill-opacity:0.3;"/>
    <path clip-path="url(#p4297f3ac17)" d="M 116.936093 214.388224 
L 124.902226 214.505729 
L 124.090007 212.819566 
L 132.422062 215.453741 
L 124.015938 217.841019 
L 124.877536 216.179546 
L 116.911403 216.062042 
L 116.936093 214.388224 
" style="fill:#481769;fill-opacity:0.3;"/>
    <path clip-path="url(#p4297f3ac17)" d="M 144.602138 214.313911 
L 152.566774 214.507971 
L 151.770798 212.81408 
L 160.077151 215.528211 
L 151.648472 217.83459 
L 152.525999 216.181474 
L 144.561363 215.987414 
L 144.602138 214.313911 
" style="fill:#481668;fill-opacity:0.3;"/>
    <path clip-path="url(#p4297f3ac17)" d="M 172.268055 214.245615 
L 180.230664 214.510102 
L 179.449698 212.809238 
L 187.731725 215.596721 
L 179.282979 217.82847 
L 180.175091 216.18318 
L 172.212482 215.918692 
L 172.268055 214.245615 
" style="fill:#471365;fill-opacity:0.3;"/>
    <path clip-path="url(#p4297f3ac17)" d="M 199.937848 214.155907 
L 207.896841 214.513005 
L 207.135714 212.803171 
L 215.384754 215.686808 
L 206.910618 217.820124 
L 207.821809 216.185322 
L 199.862815 215.828225 
L 199.937848 214.155907 
" style="fill:#471063;fill-opacity:0.3;"/>
    <path clip-path="url(#p4297f3ac17)" d="M 227.618925 214.005961 
L 235.569446 214.518118 
L 234.84179 212.793774 
L 243.033058 215.837644 
L 234.518952 217.805387 
L 235.461833 216.188655 
L 227.511312 215.676498 
L 227.618925 214.005961 
" style="fill:#460b5e;fill-opacity:0.3;"/>
    <path clip-path="url(#p4297f3ac17)" d="M 255.341485 213.669768 
L 263.261821 214.530791 
L 262.610639 212.776138 
L 270.660242 216.177008 
L 262.067893 217.768724 
L 263.080906 216.194987 
L 255.160569 215.333964 
L 255.341485 213.669768 
" style="fill:#46075a;fill-opacity:0.3;"/>
    <path clip-path="url(#p4297f3ac17)" d="M 283.500927 212.146766 
L 291.077387 214.610574 
L 290.799104 212.75979 
L 297.982277 217.736138 
L 289.246042 217.535612 
L 290.559699 216.202515 
L 282.98324 213.738707 
L 283.500927 212.146766 
" style="fill:#440256;fill-opacity:0.3;"/>
    <path clip-path="url(#p4297f3ac17)" d="M 325.878104 213.648153 
L 318.331461 216.20183 
L 319.660869 217.519221 
L 310.927634 217.823559 
L 318.051158 212.762193 
L 317.794891 214.616154 
L 325.341533 212.062477 
L 325.878104 213.648153 
" style="fill:#440256;fill-opacity:0.3;"/>
    <path clip-path="url(#p4297f3ac17)" d="M 353.720285 215.310298 
L 345.802599 216.195363 
L 346.820385 217.766018 
L 338.223243 216.200395 
L 346.262484 212.775103 
L 345.616632 214.531725 
L 353.534318 213.64666 
L 353.720285 215.310298 
" style="fill:#46075a;fill-opacity:0.3;"/>
    <path clip-path="url(#p4297f3ac17)" d="M 381.370435 215.656476 
L 373.421257 216.189071 
L 374.368292 217.803373 
L 365.849155 215.857525 
L 374.032571 212.792607 
L 373.30935 214.518816 
L 381.258528 213.986221 
L 381.370435 215.656476 
" style="fill:#470d60;fill-opacity:0.3;"/>
    <path clip-path="url(#p4297f3ac17)" d="M 69.771775 206.03403 
L 68.498895 198.169371 
L 66.980125 199.263073 
L 68.121603 190.59941 
L 71.937615 198.460712 
L 70.151391 197.901918 
L 71.424272 205.766577 
L 69.771775 206.03403 
" style="fill:#3f4889;fill-opacity:0.3;"/>
    <path clip-path="url(#p4297f3ac17)" d="M 89.251954 197.559143 
L 97.217538 197.408914 
L 96.349121 195.750994 
L 104.764981 198.10372 
L 96.443818 200.772101 
L 97.249103 199.082616 
L 89.28352 199.232845 
L 89.251954 197.559143 
" style="fill:#470d60;fill-opacity:0.3;"/>
    <path clip-path="url(#p4297f3ac17)" d="M 116.960403 197.118319 
L 124.921623 197.421728 
L 124.148982 195.717067 
L 132.417283 198.545002 
L 123.957728 200.735424 
L 124.857872 199.094514 
L 116.896651 198.791105 
L 116.960403 197.118319 
" style="fill:#470e61;fill-opacity:0.3;"/>
    <path clip-path="url(#p4297f3ac17)" d="M 144.649994 196.912317 
L 152.600243 197.428681 
L 151.8735 195.703952 
L 160.063156 198.752157 
L 151.548009 200.715393 
L 152.491746 199.099161 
L 144.541497 198.582797 
L 144.649994 196.912317 
" style="fill:#470d60;fill-opacity:0.3;"/>
    <path clip-path="url(#p4297f3ac17)" d="M 172.352546 196.670776 
L 180.282554 197.43763 
L 179.610569 195.690839 
L 187.700012 198.995824 
L 179.127182 200.689521 
L 180.121425 199.103858 
L 172.191417 198.337004 
L 172.352546 196.670776 
" style="fill:#460b5e;fill-opacity:0.3;"/>
    <path clip-path="url(#p4297f3ac17)" d="M 200.116727 196.218806 
L 207.986962 197.456741 
L 207.420239 195.673017 
L 215.298414 199.454074 
L 206.639907 200.634022 
L 207.726852 199.110409 
L 199.856616 197.872474 
L 200.116727 196.218806 
" style="fill:#46075a;fill-opacity:0.3;"/>
    <path clip-path="url(#p4297f3ac17)" d="M 228.322272 194.773206 
L 235.793289 197.540333 
L 235.589816 195.679838 
L 242.566615 200.941615 
L 233.845557 200.389195 
L 235.211869 199.110119 
L 227.740852 196.342992 
L 228.322272 194.773206 
" style="fill:#440256;fill-opacity:0.3;"/>
    <path clip-path="url(#p4297f3ac17)" d="M 268.597056 192.870505 
L 263.45489 198.955833 
L 265.273747 199.396973 
L 257.953527 204.169436 
L 261.437859 196.155608 
L 262.176261 197.875378 
L 267.318427 191.79005 
L 268.597056 192.870505 
" style="fill:#440154;fill-opacity:0.3;"/>
    <path clip-path="url(#p4297f3ac17)" d="M 298.352945 197.331361 
L 290.587985 199.11419 
L 291.778361 200.558437 
L 283.058717 199.984127 
L 290.654554 195.663793 
L 290.213382 197.482642 
L 297.978343 195.699813 
L 298.352945 197.331361 
" style="fill:#450559;fill-opacity:0.3;"/>
    <path clip-path="url(#p4297f3ac17)" d="M 326.062401 198.102534 
L 318.159045 199.107544 
L 319.200528 200.662587 
L 310.580636 199.227493 
L 318.567019 195.680705 
L 317.947875 197.446917 
L 325.851232 196.441907 
L 326.062401 198.102534 
" style="fill:#460b5e;fill-opacity:0.3;"/>
    <path clip-path="url(#p4297f3ac17)" d="M 353.718784 198.405545 
L 345.782339 199.102634 
L 346.762599 200.696979 
L 338.204995 198.927958 
L 346.32319 195.694239 
L 345.63587 197.435054 
L 353.572314 196.737965 
L 353.718784 198.405545 
" style="fill:#471063;fill-opacity:0.3;"/>
    <path clip-path="url(#p4297f3ac17)" d="M 381.370435 198.566896 
L 373.421257 199.099491 
L 374.368292 200.713793 
L 365.849155 198.767945 
L 374.032571 195.703027 
L 373.30935 197.429236 
L 381.258528 196.896641 
L 381.370435 198.566896 
" style="fill:#481668;fill-opacity:0.3;"/>
    <path clip-path="url(#p4297f3ac17)" d="M 70.00362 188.928712 
L 68.496878 181.105489 
L 67.011384 182.243975 
L 67.894112 173.550138 
L 71.942754 181.294201 
L 70.140668 180.788897 
L 71.64741 188.61212 
L 70.00362 188.928712 
" style="fill:#34608d;fill-opacity:0.3;"/>
    <path clip-path="url(#p4297f3ac17)" d="M 89.224891 180.923423 
L 97.168166 180.309035 
L 96.204566 178.704567 
L 104.74328 180.562623 
L 96.591845 183.711612 
L 97.297259 181.97805 
L 89.353984 182.592438 
L 89.224891 180.923423 
" style="fill:#450457;fill-opacity:0.3;"/>
    <path clip-path="url(#p4297f3ac17)" d="M 117.086987 179.366702 
L 124.992234 180.35673 
L 124.369743 178.591695 
L 132.362834 182.123339 
L 123.745678 183.574769 
L 124.784212 182.017755 
L 116.878965 181.027727 
L 117.086987 179.366702 
" style="fill:#450559;fill-opacity:0.3;"/>
    <path clip-path="url(#p4297f3ac17)" d="M 144.993937 178.523364 
L 152.737287 180.397829 
L 152.31764 178.573893 
L 159.861893 182.983686 
L 151.136071 183.454915 
L 152.343431 182.024836 
L 144.600081 180.150371 
L 144.993937 178.523364 
" style="fill:#450559;fill-opacity:0.3;"/>
    <path clip-path="url(#p4297f3ac17)" d="M 173.781121 176.441952 
L 180.603999 180.555519 
L 180.751528 178.689754 
L 186.623037 185.161801 
L 178.15854 182.990556 
L 179.739669 181.98912 
L 172.916792 177.875553 
L 173.781121 176.441952 
" style="fill:#440256;fill-opacity:0.3;"/>
    <path clip-path="url(#p4297f3ac17)" d="M 212.526988 175.085307 
L 208.230362 181.794412 
L 210.091453 181.992357 
L 203.462945 187.686644 
L 205.862368 179.283978 
L 206.820666 180.891619 
L 211.117293 174.182514 
L 212.526988 175.085307 
" style="fill:#440154;fill-opacity:0.3;"/>
    <path clip-path="url(#p4297f3ac17)" d="M 242.904614 179.451755 
L 235.363777 182.022526 
L 236.696167 183.336901 
L 227.963644 183.661027 
L 235.075681 178.583533 
L 234.823615 180.43807 
L 242.364452 177.867299 
L 242.904614 179.451755 
" style="fill:#450559;fill-opacity:0.3;"/>
    <path clip-path="url(#p4297f3ac17)" d="M 270.725526 180.534293 
L 262.898867 182.023084 
L 264.033943 183.511186 
L 255.342153 182.608517 
L 263.095483 178.57765 
L 262.586047 180.378572 
L 270.412706 178.889781 
L 270.725526 180.534293 
" style="fill:#460a5d;fill-opacity:0.3;"/>
    <path clip-path="url(#p4297f3ac17)" d="M 298.405201 180.981682 
L 290.505941 182.018398 
L 291.553656 183.569249 
L 282.928075 182.168755 
L 290.900162 178.589949 
L 290.28811 180.358631 
L 298.18737 179.321916 
L 298.405201 180.981682 
" style="fill:#470e61;fill-opacity:0.3;"/>
    <path clip-path="url(#p4297f3ac17)" d="M 326.063537 181.223531 
L 318.135917 182.014689 
L 319.135015 183.597297 
L 310.557034 181.929885 
L 318.636309 178.60012 
L 317.969681 180.348963 
L 325.897301 179.557806 
L 326.063537 181.223531 
" style="fill:#471365;fill-opacity:0.3;"/>
    <path clip-path="url(#p4297f3ac17)" d="M 353.717397 181.37443 
L 345.775946 182.011957 
L 346.744217 183.613612 
L 338.200125 181.780439 
L 346.342351 178.607716 
L 345.641991 180.343325 
L 353.583442 179.705799 
L 353.717397 181.37443 
" style="fill:#48186a;fill-opacity:0.3;"/>
    <path clip-path="url(#p4297f3ac17)" d="M 381.370435 181.477316 
L 373.421257 182.009911 
L 374.368292 183.624213 
L 365.849155 181.678365 
L 374.032571 178.613447 
L 373.30935 180.339656 
L 381.258528 179.807061 
L 381.370435 181.477316 
" style="fill:#481d6f;fill-opacity:0.3;"/>
    <path clip-path="url(#p4297f3ac17)" d="M 70.132563 171.827367 
L 68.496087 164.030249 
L 67.029708 165.193253 
L 67.767911 156.485952 
L 71.944622 164.1617 
L 70.134392 163.686398 
L 71.770868 171.483516 
L 70.132563 171.827367 
" style="fill:#2b758e;fill-opacity:0.3;"/>
    <path clip-path="url(#p4297f3ac17)" d="M 104.638051 165.705591 
L 96.713867 164.880732 
L 97.373052 166.632394 
L 89.308009 163.268304 
L 97.893002 161.637383 
L 96.887184 163.215728 
L 104.811368 164.040587 
L 104.638051 165.705591 
" style="fill:#450457;fill-opacity:0.3;"/>
    <path clip-path="url(#p4297f3ac17)" d="M 132.104634 161.718576 
L 124.811031 164.924265 
L 126.250854 166.119989 
L 117.57796 167.189071 
L 124.230147 161.522465 
L 124.137462 163.391757 
L 131.431065 160.186068 
L 132.104634 161.718576 
" style="fill:#440256;fill-opacity:0.3;"/>
    <path clip-path="url(#p4297f3ac17)" d="M 159.731566 161.626978 
L 152.478107 164.922494 
L 153.932587 166.100346 
L 145.273557 167.276452 
L 151.855258 161.528127 
L 151.785664 163.398421 
L 159.039123 160.102905 
L 159.731566 161.626978 
" style="fill:#450457;fill-opacity:0.3;"/>
    <path clip-path="url(#p4297f3ac17)" d="M 187.63572 162.572428 
L 180.026898 164.934401 
L 181.322558 166.284997 
L 172.584419 166.368336 
L 179.833688 161.488774 
L 179.530608 163.33566 
L 187.139429 160.973687 
L 187.63572 162.572428 
" style="fill:#450559;fill-opacity:0.3;"/>
    <path clip-path="url(#p4297f3ac17)" d="M 215.392469 163.233019 
L 207.60933 164.934731 
L 208.784572 166.39132 
L 200.071395 165.726059 
L 207.711897 161.485216 
L 207.251771 163.299363 
L 215.034911 161.597651 
L 215.392469 163.233019 
" style="fill:#460a5d;fill-opacity:0.3;"/>
    <path clip-path="url(#p4297f3ac17)" d="M 243.082403 163.642816 
L 235.220364 164.931778 
L 236.317169 166.448308 
L 227.65119 165.32455 
L 235.504672 161.492469 
L 234.949531 163.279832 
L 242.811571 161.99087 
L 243.082403 163.642816 
" style="fill:#470d60;fill-opacity:0.3;"/>
    <path clip-path="url(#p4297f3ac17)" d="M 270.74899 163.907362 
L 262.847715 164.928608 
L 263.892391 166.481508 
L 255.269569 165.064126 
L 263.248649 161.500937 
L 262.633134 163.268418 
L 270.534409 162.247172 
L 270.74899 163.907362 
" style="fill:#471365;fill-opacity:0.3;"/>
    <path clip-path="url(#p4297f3ac17)" d="M 298.407229 164.087854 
L 290.484426 164.925879 
L 291.492866 166.502551 
L 282.905174 164.885897 
L 290.964616 161.508411 
L 290.308343 163.261166 
L 298.231145 162.42314 
L 298.407229 164.087854 
" style="fill:#481769;fill-opacity:0.3;"/>
    <path clip-path="url(#p4297f3ac17)" d="M 326.062418 164.217141 
L 318.126805 164.923642 
L 319.108955 166.516824 
L 310.549259 164.757955 
L 318.663612 161.514609 
L 317.978357 163.256238 
L 325.91397 162.549737 
L 326.062418 164.217141 
" style="fill:#481b6d;fill-opacity:0.3;"/>
    <path clip-path="url(#p4297f3ac17)" d="M 353.716556 164.313522 
L 345.772813 164.921822 
L 346.735184 166.527028 
L 338.197895 164.662429 
L 346.351741 161.519688 
L 345.644999 163.252709 
L 353.588742 162.644408 
L 353.716556 164.313522 
" style="fill:#482071;fill-opacity:0.3;"/>
    <path clip-path="url(#p4297f3ac17)" d="M 381.370435 164.387736 
L 373.421257 164.920331 
L 374.368292 166.534633 
L 365.849155 164.588785 
L 374.032571 161.523867 
L 373.30935 163.250076 
L 381.258528 162.717481 
L 381.370435 164.387736 
" style="fill:#482576;fill-opacity:0.3;"/>
    <path clip-path="url(#p4297f3ac17)" d="M 70.214607 154.729174 
L 68.495708 146.949812 
L 67.041718 148.128269 
L 67.687732 139.413644 
L 71.945441 147.04476 
L 70.130282 146.588643 
L 71.849181 154.368005 
L 70.214607 154.729174 
" style="fill:#228b8d;fill-opacity:0.3;"/>
    <path clip-path="url(#p4297f3ac17)" d="M 104.724888 148.139416 
L 96.764768 147.808377 
L 97.531488 149.51571 
L 89.273052 146.659095 
L 97.740159 144.498047 
L 96.834325 146.135823 
L 104.794444 146.466862 
L 104.724888 148.139416 
" style="fill:#470d60;fill-opacity:0.3;"/>
    <path clip-path="url(#p4297f3ac17)" d="M 132.467877 146.942572 
L 124.551264 147.83719 
L 125.570945 149.406616 
L 116.97192 147.851368 
L 125.007022 144.416378 
L 124.36329 146.173777 
L 132.279902 145.279159 
L 132.467877 146.942572 
" style="fill:#460a5d;fill-opacity:0.3;"/>
    <path clip-path="url(#p4297f3ac17)" d="M 160.114434 146.58475 
L 152.24724 147.841872 
L 153.337897 149.36283 
L 144.676539 148.203998 
L 152.54547 144.403743 
L 151.983098 146.188843 
L 159.850292 144.931721 
L 160.114434 146.58475 
" style="fill:#460b5e;fill-opacity:0.3;"/>
    <path clip-path="url(#p4297f3ac17)" d="M 187.771837 146.601965 
L 179.901883 147.841688 
L 180.989174 149.365054 
L 172.330399 148.187073 
L 180.207715 144.404227 
L 179.641397 146.188079 
L 187.511351 144.948356 
L 187.771837 146.601965 
" style="fill:#470e61;fill-opacity:0.3;"/>
    <path clip-path="url(#p4297f3ac17)" d="M 215.433503 146.728129 
L 207.544501 147.840213 
L 208.606974 149.38099 
L 199.968416 148.06291 
L 207.905972 144.408156 
L 207.310833 146.182601 
L 215.199836 145.070518 
L 215.433503 146.728129 
" style="fill:#471365;fill-opacity:0.3;"/>
    <path clip-path="url(#p4297f3ac17)" d="M 243.093298 146.865519 
L 235.185917 147.838351 
L 236.221062 149.39762 
L 227.607083 147.927452 
L 235.607837 144.4132 
L 234.981508 146.176877 
L 242.88889 145.204045 
L 243.093298 146.865519 
" style="fill:#481668;fill-opacity:0.3;"/>
    <path clip-path="url(#p4297f3ac17)" d="M 270.750699 146.987056 
L 262.829111 147.836482 
L 263.839818 149.411701 
L 255.249809 147.807407 
L 263.304383 144.418326 
L 262.650632 146.172024 
L 270.572221 145.322598 
L 270.750699 146.987056 
" style="fill:#481a6c;fill-opacity:0.3;"/>
    <path clip-path="url(#p4297f3ac17)" d="M 298.406507 147.088548 
L 290.47453 147.834762 
L 291.464643 149.423007 
L 282.89625 147.707006 
L 290.994267 144.423084 
L 290.317738 146.168121 
L 298.249715 145.421907 
L 298.406507 147.088548 
" style="fill:#481f70;fill-opacity:0.3;"/>
    <path clip-path="url(#p4297f3ac17)" d="M 326.061453 147.172097 
L 318.121933 147.833237 
L 319.094963 149.432005 
L 310.545458 147.624249 
L 318.678213 144.427327 
L 317.983017 146.165011 
L 325.922537 145.503871 
L 326.061453 147.172097 
" style="fill:#482374;fill-opacity:0.3;"/>
    <path clip-path="url(#p4297f3ac17)" d="M 353.716007 147.240968 
L 345.770953 147.831907 
L 346.729814 149.439212 
L 338.196621 147.55596 
L 346.357315 144.431046 
L 345.646787 146.162518 
L 353.591841 145.571579 
L 353.716007 147.240968 
" style="fill:#482878;fill-opacity:0.3;"/>
    <path clip-path="url(#p4297f3ac17)" d="M 381.370435 147.298156 
L 373.421257 147.830751 
L 374.368292 149.445053 
L 365.849155 147.499205 
L 374.032571 144.434287 
L 373.30935 146.160496 
L 381.258528 145.627901 
L 381.370435 147.298156 
" style="fill:#472d7b;fill-opacity:0.3;"/>
    <path clip-path="url(#p4297f3ac17)" d="M 70.271383 137.63312 
L 68.495501 129.866568 
L 67.05019 131.055651 
L 67.632302 122.336525 
L 71.945838 129.936224 
L 70.127384 129.493425 
L 71.903266 137.259977 
L 70.271383 137.63312 
" style="fill:#1fa088;fill-opacity:0.3;"/>
    <path clip-path="url(#p4297f3ac17)" d="M 104.738482 130.955435 
L 96.774908 130.721813 
L 97.562461 132.419638 
L 89.269692 129.664278 
L 97.709724 127.399797 
L 96.823996 129.048533 
L 104.78757 129.282155 
L 104.738482 130.955435 
" style="fill:#481668;fill-opacity:0.3;"/>
    <path clip-path="url(#p4297f3ac17)" d="M 132.463674 130.150363 
L 124.518698 130.742347 
L 125.477769 132.349526 
L 116.944329 130.467396 
L 125.104613 127.341409 
L 124.394312 129.072975 
L 132.339288 128.480991 
L 132.463674 130.150363 
" style="fill:#471365;fill-opacity:0.3;"/>
    <path clip-path="url(#p4297f3ac17)" d="M 160.1245 129.875071 
L 152.205386 130.747262 
L 153.220617 132.319569 
L 144.626032 130.739972 
L 152.670831 127.327754 
L 152.022124 129.083324 
L 159.941238 128.211133 
L 160.1245 129.875071 
" style="fill:#481467;fill-opacity:0.3;"/>
    <path clip-path="url(#p4297f3ac17)" d="M 187.780733 129.819687 
L 179.868015 130.748122 
L 180.894392 132.313176 
L 172.288801 130.794683 
L 180.309153 127.325393 
L 179.672935 129.085528 
L 187.585653 128.157093 
L 187.780733 129.819687 
" style="fill:#481769;fill-opacity:0.3;"/>
    <path clip-path="url(#p4297f3ac17)" d="M 215.437513 129.852734 
L 207.520931 130.747614 
L 208.540663 132.317006 
L 199.941587 130.762042 
L 207.976575 127.326787 
L 207.332901 129.084208 
L 215.249484 128.189328 
L 215.437513 129.852734 
" style="fill:#481a6c;fill-opacity:0.3;"/>
    <path clip-path="url(#p4297f3ac17)" d="M 243.094117 129.915952 
L 235.170538 130.7466 
L 236.177509 132.32421 
L 227.591326 130.699559 
L 235.65391 127.32958 
L 234.996005 129.081723 
L 242.919584 128.251076 
L 243.094117 129.915952 
" style="fill:#481d6f;fill-opacity:0.3;"/>
    <path clip-path="url(#p4297f3ac17)" d="M 270.75014 129.985116 
L 262.819502 130.745425 
L 263.812435 132.331908 
L 255.241006 130.631137 
L 263.333174 127.332829 
L 262.659748 129.079066 
L 270.590386 128.318756 
L 270.75014 129.985116 
" style="fill:#482173;fill-opacity:0.3;"/>
    <path clip-path="url(#p4297f3ac17)" d="M 298.405618 130.050904 
L 290.468845 130.744246 
L 291.448352 132.339053 
L 282.891584 130.565994 
L 291.011304 127.336107 
L 290.323162 129.076597 
L 298.259935 128.383255 
L 298.405618 130.050904 
" style="fill:#482677;fill-opacity:0.3;"/>
    <path clip-path="url(#p4297f3ac17)" d="M 326.060724 130.110258 
L 318.1189 130.743129 
L 319.086232 132.345351 
L 310.543217 130.50717 
L 318.687302 127.339221 
L 317.985924 129.074419 
L 325.927747 128.441548 
L 326.060724 130.110258 
" style="fill:#472a7a;fill-opacity:0.3;"/>
    <path clip-path="url(#p4297f3ac17)" d="M 353.715623 130.162666 
L 345.769722 130.742102 
L 346.726254 132.350794 
L 338.195797 130.45519 
L 346.361007 127.342094 
L 345.647972 129.072536 
L 353.593873 128.4931 
L 353.715623 130.162666 
" style="fill:#472f7d;fill-opacity:0.3;"/>
    <path clip-path="url(#p4297f3ac17)" d="M 381.370435 130.208576 
L 373.421257 130.741171 
L 374.368292 132.355473 
L 365.849155 130.409625 
L 374.032571 127.344707 
L 373.30935 129.070915 
L 381.258528 128.538321 
L 381.370435 130.208576 
" style="fill:#46337f;fill-opacity:0.3;"/>
    <path clip-path="url(#p4297f3ac17)" d="M 70.313002 120.538526 
L 68.49538 112.781636 
L 67.056484 113.978475 
L 67.591698 105.256344 
L 71.946041 112.832736 
L 70.125232 112.399723 
L 71.942854 120.156613 
L 70.313002 120.538526 
" style="fill:#2fb47c;fill-opacity:0.3;"/>
    <path clip-path="url(#p4297f3ac17)" d="M 104.743932 113.825519 
L 96.779247 113.633483 
L 97.575654 115.327171 
L 89.268611 112.615151 
L 97.696704 110.306631 
L 96.819597 111.959969 
L 104.784282 112.152005 
L 104.743932 113.825519 
" style="fill:#481c6e;fill-opacity:0.3;"/>
    <path clip-path="url(#p4297f3ac17)" d="M 132.458966 113.176553 
L 124.506069 113.650381 
L 125.441146 115.271638 
L 116.936623 113.262879 
L 125.142469 110.258528 
L 124.406509 111.979344 
L 132.359407 111.505516 
L 132.458966 113.176553 
" style="fill:#481b6d;fill-opacity:0.3;"/>
    <path clip-path="url(#p4297f3ac17)" d="M 160.12323 112.943651 
L 152.18805 113.654989 
L 153.171171 115.247571 
L 144.610404 113.49392 
L 152.722779 110.245628 
L 152.038586 111.987674 
L 159.973766 111.276336 
L 160.12323 112.943651 
" style="fill:#481c6e;fill-opacity:0.3;"/>
    <path clip-path="url(#p4297f3ac17)" d="M 187.78074 112.872981 
L 179.852335 113.656236 
L 180.849856 115.239839 
L 172.273541 113.563877 
L 180.356131 110.242167 
L 179.687761 111.990345 
L 187.616165 111.207091 
L 187.78074 112.872981 
" style="fill:#481f70;fill-opacity:0.3;"/>
    <path clip-path="url(#p4297f3ac17)" d="M 215.437277 112.874 
L 207.50877 113.656218 
L 208.506083 115.239952 
L 199.929987 113.562869 
L 208.013011 110.242216 
L 207.344413 111.990306 
L 215.27292 111.208088 
L 215.437277 112.874 
" style="fill:#482173;fill-opacity:0.3;"/>
    <path clip-path="url(#p4297f3ac17)" d="M 243.093464 112.90577 
L 235.161835 113.655666 
L 236.152684 115.243451 
L 227.583496 113.531427 
L 235.679988 110.243747 
L 235.004269 111.989098 
L 242.935899 111.239202 
L 243.093464 112.90577 
" style="fill:#482576;fill-opacity:0.3;"/>
    <path clip-path="url(#p4297f3ac17)" d="M 270.749313 112.949103 
L 262.813636 113.65489 
L 263.795643 115.248159 
L 255.236105 113.488519 
L 263.350751 110.245904 
L 262.665339 111.987471 
L 270.601015 111.281685 
L 270.749313 112.949103 
" style="fill:#482979;fill-opacity:0.3;"/>
    <path clip-path="url(#p4297f3ac17)" d="M 298.404855 112.995061 
L 290.465155 113.654037 
L 291.437749 115.25307 
L 282.888737 113.442984 
L 291.022363 110.248279 
L 290.326693 111.985773 
L 298.266393 111.326797 
L 298.404855 112.995061 
" style="fill:#472d7b;fill-opacity:0.3;"/>
    <path clip-path="url(#p4297f3ac17)" d="M 326.06017 113.039617 
L 318.116831 113.653183 
L 319.080266 115.257751 
L 310.541743 113.39881 
L 318.693504 110.250666 
L 317.987911 111.984154 
L 325.931249 111.370589 
L 326.06017 113.039617 
" style="fill:#46327e;fill-opacity:0.3;"/>
    <path clip-path="url(#p4297f3ac17)" d="M 353.715339 113.081107 
L 345.768846 113.652362 
L 346.723722 115.262038 
L 338.19522 113.357652 
L 346.363631 110.252964 
L 345.648816 111.98267 
L 353.595309 111.411416 
L 353.715339 113.081107 
" style="fill:#453781;fill-opacity:0.3;"/>
    <path clip-path="url(#p4297f3ac17)" d="M 381.370435 113.118996 
L 373.421257 113.651591 
L 374.368292 115.265892 
L 365.849155 113.320045 
L 374.032571 110.255127 
L 373.30935 111.981335 
L 381.258528 111.44874 
L 381.370435 113.118996 
" style="fill:#443a83;fill-opacity:0.3;"/>
    <path clip-path="url(#p4297f3ac17)" d="M 70.344814 103.44496 
L 68.495303 95.695611 
L 67.061342 96.898358 
L 67.560678 88.1741 
L 71.946145 95.732519 
L 70.123571 95.306998 
L 71.973082 103.056346 
L 70.344814 103.44496 
" style="fill:#58c765;fill-opacity:0.3;"/>
    <path clip-path="url(#p4297f3ac17)" d="M 104.746863 96.713563 
L 96.781655 96.544586 
L 97.582962 98.235962 
L 89.268102 95.548002 
L 97.689477 93.215091 
L 96.81716 94.870962 
L 104.782368 95.03994 
L 104.746863 96.713563 
" style="fill:#482475;fill-opacity:0.3;"/>
    <path clip-path="url(#p4297f3ac17)" d="M 132.45576 96.148538 
L 124.499364 96.559455 
L 125.42159 98.188056 
L 116.93322 96.112101 
L 125.162569 93.172741 
L 124.413024 94.887683 
L 132.369419 94.476766 
L 132.45576 96.148538 
" style="fill:#482374;fill-opacity:0.3;"/>
    <path clip-path="url(#p4297f3ac17)" d="M 160.121174 95.940661 
L 152.17858 96.563785 
L 153.143945 98.167192 
L 144.603192 96.318528 
L 152.751158 93.160576 
L 152.047651 94.894913 
L 159.990246 94.271789 
L 160.121174 95.940661 
" style="fill:#482475;fill-opacity:0.3;"/>
    <path clip-path="url(#p4297f3ac17)" d="M 187.779552 95.865882 
L 179.843303 96.565193 
L 180.824009 98.159264 
L 172.26591 96.392641 
L 180.383198 93.156647 
L 179.696366 94.897655 
L 187.632615 94.198343 
L 187.779552 95.865882 
" style="fill:#482677;fill-opacity:0.3;"/>
    <path clip-path="url(#p4297f3ac17)" d="M 215.436357 95.85214 
L 207.501353 96.565444 
L 208.484868 98.157782 
L 199.923667 96.406252 
L 208.035237 93.155951 
L 207.351476 94.898166 
L 215.28648 94.184863 
L 215.436357 95.85214 
" style="fill:#482979;fill-opacity:0.3;"/>
    <path clip-path="url(#p4297f3ac17)" d="M 243.092616 95.867316 
L 235.156238 96.565167 
L 236.136651 98.159418 
L 227.578877 96.39122 
L 235.69676 93.15672 
L 235.009608 94.897601 
L 242.945985 94.199751 
L 243.092616 95.867316 
" style="fill:#472d7b;fill-opacity:0.3;"/>
    <path clip-path="url(#p4297f3ac17)" d="M 270.748547 95.895649 
L 262.809684 96.564642 
L 263.784295 98.162447 
L 255.233006 96.363148 
L 263.362595 93.158183 
L 262.669118 94.896554 
L 270.60798 94.227561 
L 270.748547 95.895649 
" style="fill:#46307e;fill-opacity:0.3;"/>
    <path clip-path="url(#p4297f3ac17)" d="M 298.404232 95.929158 
L 290.462567 96.564007 
L 291.430297 98.165987 
L 282.886825 96.329933 
L 291.030121 93.159957 
L 290.329174 94.89533 
L 298.27084 94.260481 
L 298.404232 95.929158 
" style="fill:#463480;fill-opacity:0.3;"/>
    <path clip-path="url(#p4297f3ac17)" d="M 326.059738 95.963789 
L 318.115329 96.563333 
L 319.07593 98.169599 
L 310.540702 96.295591 
L 318.698007 93.161839 
L 317.989355 94.89408 
L 325.933764 94.294536 
L 326.059738 95.963789 
" style="fill:#443983;fill-opacity:0.3;"/>
    <path clip-path="url(#p4297f3ac17)" d="M 353.715122 95.997523 
L 345.768191 96.562661 
L 346.721828 98.173072 
L 338.194795 96.262121 
L 346.365593 93.163722 
L 345.649446 94.892878 
L 353.596377 94.32774 
L 353.715122 95.997523 
" style="fill:#433d84;fill-opacity:0.3;"/>
    <path clip-path="url(#p4297f3ac17)" d="M 381.370435 96.029416 
L 373.421257 96.562011 
L 374.368292 98.176312 
L 365.849155 96.230465 
L 374.032571 93.165546 
L 373.30935 94.891755 
L 381.258528 94.35916 
L 381.370435 96.029416 
" style="fill:#424186;fill-opacity:0.3;"/>
    <path clip-path="url(#p4297f3ac17)" d="M 70.369921 86.35214 
L 68.495254 78.608839 
L 67.065206 79.816236 
L 67.536207 71.090402 
L 71.946197 78.63454 
L 70.122251 78.21494 
L 71.996918 85.958241 
L 70.369921 86.35214 
" style="fill:#8bd646;fill-opacity:0.3;"/>
    <path clip-path="url(#p4297f3ac17)" d="M 104.748692 79.609756 
L 96.783187 79.455436 
L 97.587605 81.145335 
L 89.267813 78.47268 
L 97.684881 76.124277 
L 96.815612 77.78175 
L 104.781118 77.93607 
L 104.748692 79.609756 
" style="fill:#472c7a;fill-opacity:0.3;"/>
    <path clip-path="url(#p4297f3ac17)" d="M 132.453525 79.097159 
L 124.495208 79.469013 
L 125.409428 81.102122 
L 116.931351 78.984521 
L 125.17503 76.085595 
L 124.417075 77.796837 
L 132.375392 77.424984 
L 132.453525 79.097159 
" style="fill:#472a7a;fill-opacity:0.3;"/>
    <path clip-path="url(#p4297f3ac17)" d="M 160.119383 78.905699 
L 152.172615 79.473126 
L 153.126715 81.083262 
L 144.599132 79.174769 
L 152.769037 76.074015 
L 152.053389 77.803377 
L 160.000157 77.23595 
L 160.119383 78.905699 
" style="fill:#472c7a;fill-opacity:0.3;"/>
    <path clip-path="url(#p4297f3ac17)" d="M 187.77831 78.829984 
L 179.837432 79.47461 
L 180.807134 81.075398 
L 172.261407 79.249865 
L 180.400794 76.069864 
L 179.701985 77.806099 
L 187.642863 77.161472 
L 187.77831 78.829984 
" style="fill:#472d7b;fill-opacity:0.3;"/>
    <path clip-path="url(#p4297f3ac17)" d="M 215.435404 78.808214 
L 207.496358 79.475022 
L 208.470528 81.073095 
L 199.919735 79.271442 
L 208.050206 76.068715 
L 207.35625 77.806895 
L 215.295297 77.140088 
L 215.435404 78.808214 
" style="fill:#46307e;fill-opacity:0.3;"/>
    <path clip-path="url(#p4297f3ac17)" d="M 243.091825 78.813405 
L 235.152336 79.474924 
L 236.125442 81.073645 
L 227.575851 79.266298 
L 235.708453 76.068987 
L 235.01334 77.806705 
L 242.952828 77.145185 
L 243.091825 78.813405 
" style="fill:#463480;fill-opacity:0.3;"/>
    <path clip-path="url(#p4297f3ac17)" d="M 270.747892 78.832078 
L 262.80684 79.47457 
L 263.776113 81.075619 
L 255.230877 79.247789 
L 263.371118 76.069976 
L 262.671842 77.806022 
L 270.612893 77.16353 
L 270.747892 78.832078 
" style="fill:#453882;fill-opacity:0.3;"/>
    <path clip-path="url(#p4297f3ac17)" d="M 298.403725 78.857111 
L 290.460651 79.474088 
L 291.424774 81.078242 
L 282.885454 79.222968 
L 291.035863 76.071324 
L 290.331014 77.805115 
L 298.274088 77.188138 
L 298.403725 78.857111 
" style="fill:#443b84;fill-opacity:0.3;"/>
    <path clip-path="url(#p4297f3ac17)" d="M 326.059394 78.884648 
L 318.114189 79.473547 
L 319.072636 81.081099 
L 310.539927 79.195655 
L 318.701424 76.072837 
L 317.990451 77.804126 
L 325.935657 77.215228 
L 326.059394 78.884648 
" style="fill:#424086;fill-opacity:0.3;"/>
    <path clip-path="url(#p4297f3ac17)" d="M 353.71495 78.912596 
L 345.767684 79.472987 
L 346.720358 81.083967 
L 338.194468 79.167924 
L 346.367115 76.074406 
L 345.649936 77.803133 
L 353.597203 77.242742 
L 353.71495 78.912596 
" style="fill:#414487;fill-opacity:0.3;"/>
    <path clip-path="url(#p4297f3ac17)" d="M 381.370435 78.939836 
L 373.421257 79.472431 
L 374.368292 81.086732 
L 365.849155 79.140885 
L 374.032571 76.075966 
L 373.30935 77.802175 
L 381.258528 77.26958 
L 381.370435 78.939836 
" style="fill:#3f4889;fill-opacity:0.3;"/>
    <path clip-path="url(#p4297f3ac17)" d="M 70.390239 69.259878 
L 68.49522 61.521532 
L 67.068352 62.732685 
L 67.51641 54.005643 
L 71.946219 61.53816 
L 70.121176 61.123357 
L 72.016194 68.861702 
L 70.390239 69.259878 
" style="fill:#c5e021;fill-opacity:0.3;"/>
    <path clip-path="url(#p4297f3ac17)" d="M 104.749942 62.510333 
L 96.784247 62.366152 
L 97.590815 64.055025 
L 89.267628 61.392963 
L 97.6817 59.033848 
L 96.814542 60.692426 
L 104.780237 60.836607 
L 104.749942 62.510333 
" style="fill:#46337f;fill-opacity:0.3;"/>
    <path clip-path="url(#p4297f3ac17)" d="M 132.451895 62.033594 
L 124.492379 62.378834 
L 125.401134 64.014991 
L 116.930185 61.869053 
L 125.183511 58.997708 
L 124.419838 60.706406 
L 132.379355 60.361166 
L 132.451895 62.033594 
" style="fill:#46327e;fill-opacity:0.3;"/>
    <path clip-path="url(#p4297f3ac17)" d="M 160.117927 61.853708 
L 152.168513 62.382779 
L 153.114832 63.997501 
L 144.596559 62.047878 
L 152.781332 58.986586 
L 152.057346 60.712475 
L 160.00676 60.183403 
L 160.117927 61.853708 
" style="fill:#46337f;fill-opacity:0.3;"/>
    <path clip-path="url(#p4297f3ac17)" d="M 187.777216 61.778123 
L 179.83331 62.384301 
L 180.795252 63.989764 
L 172.258462 62.122884 
L 180.413147 58.982322 
L 179.705942 60.715153 
L 187.649847 60.108976 
L 187.777216 61.778123 
" style="fill:#463480;fill-opacity:0.3;"/>
    <path clip-path="url(#p4297f3ac17)" d="M 215.434553 61.751493 
L 207.492765 62.384818 
L 208.460189 63.986984 
L 199.917068 62.149291 
L 208.060973 58.980877 
L 207.359693 60.716115 
L 215.301481 60.082791 
L 215.434553 61.751493 
" style="fill:#453882;fill-opacity:0.3;"/>
    <path clip-path="url(#p4297f3ac17)" d="M 243.091137 61.750123 
L 235.149461 62.384844 
L 236.117166 63.98684 
L 227.573723 62.150649 
L 235.71707 58.980803 
L 235.016096 60.716165 
L 242.957772 60.081444 
L 243.091137 61.750123 
" style="fill:#443b84;fill-opacity:0.3;"/>
    <path clip-path="url(#p4297f3ac17)" d="M 270.74734 61.762117 
L 262.804696 62.384613 
L 263.769934 63.988097 
L 255.229327 62.138757 
L 263.377544 58.98145 
L 262.6739 60.71573 
L 270.616543 60.093234 
L 270.74734 61.762117 
" style="fill:#423f85;fill-opacity:0.3;"/>
    <path clip-path="url(#p4297f3ac17)" d="M 298.403307 61.781036 
L 290.459175 62.384244 
L 291.420517 63.990067 
L 282.884426 62.119995 
L 291.040285 58.982482 
L 290.332431 60.715049 
L 298.276563 60.111841 
L 298.403307 61.781036 
" style="fill:#414287;fill-opacity:0.3;"/>
    <path clip-path="url(#p4297f3ac17)" d="M 326.059114 61.803263 
L 318.113294 62.383804 
L 319.07005 63.992363 
L 310.539329 62.097945 
L 318.704106 58.983713 
L 317.991313 60.714254 
L 325.937133 60.133713 
L 326.059114 61.803263 
" style="fill:#404688;fill-opacity:0.3;"/>
    <path clip-path="url(#p4297f3ac17)" d="M 353.714811 61.82673 
L 345.767278 62.383332 
L 346.719184 63.994766 
L 338.194209 62.074657 
L 346.36833 58.985037 
L 345.650327 60.713422 
L 353.59786 60.156821 
L 353.714811 61.82673 
" style="fill:#3e4a89;fill-opacity:0.3;"/>
    <path clip-path="url(#p4297f3ac17)" d="M 381.370435 61.850256 
L 373.421257 62.382851 
L 374.368292 63.997152 
L 365.849155 62.051305 
L 374.032571 58.986386 
L 373.30935 60.712595 
L 381.258528 60.18 
L 381.370435 61.850256 
" style="fill:#3c4f8a;fill-opacity:0.3;"/>
    <path clip-path="url(#p4297f3ac17)" d="M 70.407018 52.168041 
L 68.495197 44.43383 
L 67.070962 45.648079 
L 67.500065 36.920084 
L 71.946224 44.442962 
L 70.120284 44.032124 
L 72.032105 51.766336 
L 70.407018 52.168041 
" style="fill:#fde725;fill-opacity:0.3;"/>
    <path clip-path="url(#p4297f3ac17)" d="M 104.750851 45.413538 
L 96.785024 45.276788 
L 97.593168 46.964908 
L 89.267501 44.310612 
L 97.679368 41.943648 
L 96.813758 43.603035 
L 104.779584 43.739784 
L 104.750851 45.413538 
" style="fill:#443a83;fill-opacity:0.3;"/>
    <path clip-path="url(#p4297f3ac17)" d="M 132.450659 44.96287 
L 124.49033 45.288813 
L 125.395115 46.927169 
L 116.929393 44.760702 
L 125.189657 41.909373 
L 124.421844 43.616215 
L 132.382173 43.290271 
L 132.450659 44.96287 
" style="fill:#443983;fill-opacity:0.3;"/>
    <path clip-path="url(#p4297f3ac17)" d="M 160.116749 44.791575 
L 152.16552 45.292627 
L 153.106142 46.910673 
L 144.594793 44.93104 
L 152.790305 41.898615 
L 152.060241 43.621941 
L 160.011469 43.120889 
L 160.116749 44.791575 
" style="fill:#443983;fill-opacity:0.3;"/>
    <path clip-path="url(#p4297f3ac17)" d="M 187.776287 44.716496 
L 179.830257 45.294167 
L 180.786432 46.903072 
L 172.256396 45.005573 
L 180.422297 41.894291 
L 179.708879 43.624574 
L 187.654908 43.046903 
L 187.776287 44.716496 
" style="fill:#443b84;fill-opacity:0.3;"/>
    <path clip-path="url(#p4297f3ac17)" d="M 215.433819 44.686694 
L 207.490058 45.294757 
L 208.452381 46.899992 
L 199.915148 45.035137 
L 208.069088 41.89264 
L 207.362294 43.62564 
L 215.306055 43.017577 
L 215.433819 44.686694 
" style="fill:#423f85;fill-opacity:0.3;"/>
    <path clip-path="url(#p4297f3ac17)" d="M 243.090549 44.680735 
L 235.147255 45.294873 
L 236.110805 46.899372 
L 227.572149 45.041047 
L 235.723683 41.892315 
L 235.018214 43.625854 
L 242.961508 43.011716 
L 243.090549 44.680735 
" style="fill:#424186;fill-opacity:0.3;"/>
    <path clip-path="url(#p4297f3ac17)" d="M 270.746875 44.687863 
L 262.803022 45.294734 
L 263.765104 46.900114 
L 255.228151 45.033978 
L 263.382562 41.892704 
L 262.675508 43.625598 
L 270.619361 43.018726 
L 270.746875 44.687863 
" style="fill:#404688;fill-opacity:0.3;"/>
    <path clip-path="url(#p4297f3ac17)" d="M 298.402959 44.702178 
L 290.458004 45.294452 
L 291.417135 46.901597 
L 282.883626 45.019779 
L 291.043795 41.893493 
L 290.333558 43.625084 
L 298.278512 43.03281 
L 298.402959 44.702178 
" style="fill:#3e4989;fill-opacity:0.3;"/>
    <path clip-path="url(#p4297f3ac17)" d="M 326.058883 44.720287 
L 318.112573 45.294092 
L 319.067965 46.903461 
L 310.538853 45.001812 
L 318.706267 41.894503 
L 317.992007 43.624439 
L 325.938317 43.050634 
L 326.058883 44.720287 
" style="fill:#3d4d8a;fill-opacity:0.3;"/>
    <path clip-path="url(#p4297f3ac17)" d="M 353.714696 44.740185 
L 345.766947 45.29369 
L 346.718225 46.905495 
L 338.193998 44.982065 
L 346.369323 41.895629 
L 345.650646 43.623735 
L 353.598396 43.07023 
L 353.714696 44.740185 
" style="fill:#3b518b;fill-opacity:0.3;"/>
    <path clip-path="url(#p4297f3ac17)" d="M 381.370435 44.760676 
L 373.421257 45.29327 
L 374.368292 46.907572 
L 365.849155 44.961725 
L 374.032571 41.896806 
L 373.30935 43.623015 
L 381.258528 43.09042 
L 381.370435 44.760676 
" style="fill:#39558c;fill-opacity:0.3;"/>
   </g>
   <g id="matplotlib.axis_1">
    <g id="xtick_1">
     <g id="line2d_1">
      <defs>
       <path d="M 0 0 
L 0 3.5 
" id="m249ffee437" style="stroke:#000000;stroke-width:0.8;"/>
      </defs>
      <g>
       <use style="stroke:#000000;stroke-width:0.8;" x="69.2126" xlink:href="#m249ffee437" y="252"/>
      </g>
     </g>
     <g id="text_1">
      <!-- $0$ -->
      <defs>
       <path d="M 42 31.84375 
C 42 37.96875 41.90625 48.421875 37.703125 56.453125 
C 34 63.484375 28.09375 66 22.90625 66 
C 18.09375 66 12 63.78125 8.203125 56.5625 
C 4.203125 49.015625 3.796875 39.671875 3.796875 31.84375 
C 3.796875 26.109375 3.90625 17.375 7 9.734375 
C 11.296875 -0.609375 19 -2 22.90625 -2 
C 27.5 -2 34.5 -0.109375 38.59375 9.4375 
C 41.59375 16.375 42 24.5 42 31.84375 
z
M 22.90625 -0.40625 
C 16.5 -0.40625 12.703125 5.125 11.296875 12.75 
C 10.203125 18.6875 10.203125 27.328125 10.203125 32.953125 
C 10.203125 40.6875 10.203125 47.109375 11.5 53.234375 
C 13.40625 61.78125 19 64.390625 22.90625 64.390625 
C 27 64.390625 32.296875 61.671875 34.203125 53.4375 
C 35.5 47.71875 35.59375 40.984375 35.59375 32.953125 
C 35.59375 26.421875 35.59375 18.375 34.40625 12.453125 
C 32.296875 1.5 26.40625 -0.40625 22.90625 -0.40625 
z
" id="CMR17-48"/>
      </defs>
      <g transform="translate(66.721933 265.918498)scale(0.1 -0.1)">
       <use transform="scale(0.996264)" xlink:href="#CMR17-48"/>
      </g>
     </g>
    </g>
    <g id="xtick_2">
     <g id="line2d_2">
      <g>
       <use style="stroke:#000000;stroke-width:0.8;" x="142.818965" xlink:href="#m249ffee437" y="252"/>
      </g>
     </g>
     <g id="text_2">
      <!-- $5$ -->
      <defs>
       <path d="M 11.40625 58.59375 
C 12.40625 58.1875 16.5 56.890625 20.703125 56.890625 
C 30 56.890625 35.09375 61.890625 38 64.6875 
C 38 65.484375 38 66 37.40625 66 
C 37.296875 66 37.09375 66 36.296875 65.59375 
C 32.796875 64.09375 28.703125 63 23.703125 63 
C 20.703125 63 16.203125 63.359375 11.296875 65.484375 
C 10.203125 66 10 66 9.90625 66 
C 9.40625 66 9.296875 65.890625 9.296875 63.90625 
L 9.296875 34.859375 
C 9.296875 33.015625 9.296875 32.5 10.296875 32.5 
C 10.796875 32.5 11 32.703125 11.5 33.421875 
C 14.703125 38.046875 19.09375 40 24.09375 40 
C 27.59375 40 35.09375 37.734375 35.09375 20.203125 
C 35.09375 16.984375 35.09375 11.1875 32.09375 6.59375 
C 29.59375 2.484375 25.703125 0.390625 21.40625 0.390625 
C 14.796875 0.390625 8.09375 4.984375 6.296875 12.6875 
C 6.703125 12.59375 7.5 12.390625 7.90625 12.390625 
C 9.203125 12.390625 11.703125 13.09375 11.703125 16.1875 
C 11.703125 18.890625 9.796875 20 7.90625 20 
C 5.59375 20 4.09375 18.59375 4.09375 15.796875 
C 4.09375 7.09375 11 -2 21.59375 -2 
C 31.90625 -2 41.703125 6.890625 41.703125 19.796875 
C 41.703125 32.09375 33.90625 41.59375 24.203125 41.59375 
C 19.09375 41.59375 14.796875 39.6875 11.40625 36 
z
" id="CMR17-53"/>
      </defs>
      <g transform="translate(140.328298 265.918498)scale(0.1 -0.1)">
       <use transform="scale(0.996264)" xlink:href="#CMR17-53"/>
      </g>
     </g>
    </g>
    <g id="xtick_3">
     <g id="line2d_3">
      <g>
       <use style="stroke:#000000;stroke-width:0.8;" x="216.42533" xlink:href="#m249ffee437" y="252"/>
      </g>
     </g>
     <g id="text_3">
      <!-- $10$ -->
      <defs>
       <path d="M 26.59375 63.796875 
C 26.59375 65.890625 26.5 66 25.09375 66 
C 21.203125 61.359375 15.296875 59.890625 9.703125 59.6875 
C 9.40625 59.6875 8.90625 59.6875 8.796875 59.5 
C 8.703125 59.296875 8.703125 59.09375 8.703125 57 
C 11.796875 57 17 57.59375 21 59.984375 
L 21 7.296875 
C 21 3.796875 20.796875 2.59375 12.203125 2.59375 
L 9.203125 2.59375 
L 9.203125 0 
C 14 0.09375 19 0.1875 23.796875 0.1875 
C 28.59375 0.1875 33.59375 0.09375 38.40625 0 
L 38.40625 2.59375 
L 35.40625 2.59375 
C 26.796875 2.59375 26.59375 3.6875 26.59375 7.296875 
z
" id="CMR17-49"/>
      </defs>
      <g transform="translate(211.443995 265.918498)scale(0.1 -0.1)">
       <use transform="scale(0.996264)" xlink:href="#CMR17-49"/>
       <use transform="translate(45.690477 0)scale(0.996264)" xlink:href="#CMR17-48"/>
      </g>
     </g>
    </g>
    <g id="xtick_4">
     <g id="line2d_4">
      <g>
       <use style="stroke:#000000;stroke-width:0.8;" x="290.031695" xlink:href="#m249ffee437" y="252"/>
      </g>
     </g>
     <g id="text_4">
      <!-- $15$ -->
      <g transform="translate(285.05036 265.918498)scale(0.1 -0.1)">
       <use transform="scale(0.996264)" xlink:href="#CMR17-49"/>
       <use transform="translate(45.690477 0)scale(0.996264)" xlink:href="#CMR17-53"/>
      </g>
     </g>
    </g>
    <g id="xtick_5">
     <g id="line2d_5">
      <g>
       <use style="stroke:#000000;stroke-width:0.8;" x="363.63806" xlink:href="#m249ffee437" y="252"/>
      </g>
     </g>
     <g id="text_5">
      <!-- $20$ -->
      <defs>
       <path d="M 41.703125 15.46875 
L 39.90625 15.46875 
C 38.90625 8.390625 38.09375 7.1875 37.703125 6.59375 
C 37.203125 5.796875 30 5.796875 28.59375 5.796875 
L 9.40625 5.796875 
C 13 9.6875 20 16.765625 28.5 24.9375 
C 34.59375 30.71875 41.703125 37.5 41.703125 47.390625 
C 41.703125 59.1875 32.296875 66 21.796875 66 
C 10.796875 66 4.09375 56.296875 4.09375 47.296875 
C 4.09375 43.390625 7 42.890625 8.203125 42.890625 
C 9.203125 42.890625 12.203125 43.484375 12.203125 46.984375 
C 12.203125 50.09375 9.59375 51 8.203125 51 
C 7.59375 51 7 50.890625 6.59375 50.6875 
C 8.5 59.1875 14.296875 63.390625 20.40625 63.390625 
C 29.09375 63.390625 34.796875 56.5 34.796875 47.390625 
C 34.796875 38.703125 29.703125 31.21875 24 24.734375 
L 4.09375 2.296875 
L 4.09375 0 
L 39.296875 0 
z
" id="CMR17-50"/>
      </defs>
      <g transform="translate(358.656724 265.918498)scale(0.1 -0.1)">
       <use transform="scale(0.996264)" xlink:href="#CMR17-50"/>
       <use transform="translate(45.690477 0)scale(0.996264)" xlink:href="#CMR17-48"/>
      </g>
     </g>
    </g>
    <g id="text_6">
     <!-- k -->
     <defs>
      <path d="M 26.5 26.34375 
L 42 42.734375 
L 32.40625 42.734375 
L 14.90625 24.25 
L 14.90625 69 
L 7.5 69 
L 7.5 0 
L 14.796875 0 
L 14.796875 13.921875 
L 21.5 20.96875 
L 35.59375 0 
L 44.09375 0 
z
" id="CMSS17-107"/>
     </defs>
     <g transform="translate(218.964674 278.774175)scale(0.1 -0.1)">
      <use transform="scale(0.996264)" xlink:href="#CMSS17-107"/>
     </g>
    </g>
   </g>
   <g id="matplotlib.axis_2">
    <g id="ytick_1">
     <g id="line2d_6">
      <defs>
       <path d="M 0 0 
L -3.5 0 
" id="mbd777c83f1" style="stroke:#000000;stroke-width:0.8;"/>
      </defs>
      <g>
       <use style="stroke:#000000;stroke-width:0.8;" x="54" xlink:href="#mbd777c83f1" y="242.116364"/>
      </g>
     </g>
     <g id="text_7">
      <!-- $0.0$ -->
      <defs>
       <path d="M 18.40625 4.796875 
C 18.40625 7.6875 16 9.6875 13.59375 9.6875 
C 10.703125 9.6875 8.703125 7.296875 8.703125 4.890625 
C 8.703125 2 11.09375 0 13.5 0 
C 16.40625 0 18.40625 2.390625 18.40625 4.796875 
z
" id="CMMI12-58"/>
      </defs>
      <g transform="translate(34.269921 245.575613)scale(0.1 -0.1)">
       <use transform="scale(0.996264)" xlink:href="#CMR17-48"/>
       <use transform="translate(45.690477 0)scale(0.996264)" xlink:href="#CMMI12-58"/>
       <use transform="translate(72.787654 0)scale(0.996264)" xlink:href="#CMR17-48"/>
      </g>
     </g>
    </g>
    <g id="ytick_2">
     <g id="line2d_7">
      <g>
       <use style="stroke:#000000;stroke-width:0.8;" x="54" xlink:href="#mbd777c83f1" y="206.675798"/>
      </g>
     </g>
     <g id="text_8">
      <!-- $0.5$ -->
      <g transform="translate(34.269921 210.135047)scale(0.1 -0.1)">
       <use transform="scale(0.996264)" xlink:href="#CMR17-48"/>
       <use transform="translate(45.690477 0)scale(0.996264)" xlink:href="#CMMI12-58"/>
       <use transform="translate(72.787654 0)scale(0.996264)" xlink:href="#CMR17-53"/>
      </g>
     </g>
    </g>
    <g id="ytick_3">
     <g id="line2d_8">
      <g>
       <use style="stroke:#000000;stroke-width:0.8;" x="54" xlink:href="#mbd777c83f1" y="171.235233"/>
      </g>
     </g>
     <g id="text_9">
      <!-- $1.0$ -->
      <g transform="translate(34.269921 174.694482)scale(0.1 -0.1)">
       <use transform="scale(0.996264)" xlink:href="#CMR17-49"/>
       <use transform="translate(45.690477 0)scale(0.996264)" xlink:href="#CMMI12-58"/>
       <use transform="translate(72.787654 0)scale(0.996264)" xlink:href="#CMR17-48"/>
      </g>
     </g>
    </g>
    <g id="ytick_4">
     <g id="line2d_9">
      <g>
       <use style="stroke:#000000;stroke-width:0.8;" x="54" xlink:href="#mbd777c83f1" y="135.794667"/>
      </g>
     </g>
     <g id="text_10">
      <!-- $1.5$ -->
      <g transform="translate(34.269921 139.253917)scale(0.1 -0.1)">
       <use transform="scale(0.996264)" xlink:href="#CMR17-49"/>
       <use transform="translate(45.690477 0)scale(0.996264)" xlink:href="#CMMI12-58"/>
       <use transform="translate(72.787654 0)scale(0.996264)" xlink:href="#CMR17-53"/>
      </g>
     </g>
    </g>
    <g id="ytick_5">
     <g id="line2d_10">
      <g>
       <use style="stroke:#000000;stroke-width:0.8;" x="54" xlink:href="#mbd777c83f1" y="100.354102"/>
      </g>
     </g>
     <g id="text_11">
      <!-- $2.0$ -->
      <g transform="translate(34.269921 103.813351)scale(0.1 -0.1)">
       <use transform="scale(0.996264)" xlink:href="#CMR17-50"/>
       <use transform="translate(45.690477 0)scale(0.996264)" xlink:href="#CMMI12-58"/>
       <use transform="translate(72.787654 0)scale(0.996264)" xlink:href="#CMR17-48"/>
      </g>
     </g>
    </g>
    <g id="ytick_6">
     <g id="line2d_11">
      <g>
       <use style="stroke:#000000;stroke-width:0.8;" x="54" xlink:href="#mbd777c83f1" y="64.913536"/>
      </g>
     </g>
     <g id="text_12">
      <!-- $2.5$ -->
      <g transform="translate(34.269921 68.372786)scale(0.1 -0.1)">
       <use transform="scale(0.996264)" xlink:href="#CMR17-50"/>
       <use transform="translate(45.690477 0)scale(0.996264)" xlink:href="#CMMI12-58"/>
       <use transform="translate(72.787654 0)scale(0.996264)" xlink:href="#CMR17-53"/>
      </g>
     </g>
    </g>
    <g id="text_13">
     <!-- c -->
     <defs>
      <path d="M 38.5 39.6875 
C 38.5 40.390625 33.90625 42.390625 32.703125 42.796875 
C 29.40625 44 25.203125 44 24.09375 44 
C 11.09375 44 3.296875 32.6875 3.296875 21.296875 
C 3.296875 9.296875 12 -1 23.703125 -1 
C 30.40625 -1 35.203125 1.1875 39.09375 3.796875 
L 38.5 10.390625 
C 34.203125 7.09375 29.203125 5.296875 23.796875 5.296875 
C 16 5.296875 10.90625 12.09375 10.90625 21.390625 
C 10.90625 28.59375 14.203125 37.6875 24.203125 37.6875 
C 29.703125 37.6875 32.796875 36.59375 37.40625 33.484375 
z
" id="CMSS17-99"/>
     </defs>
     <g transform="translate(28.332743 145.493919)rotate(-90)scale(0.1 -0.1)">
      <use transform="scale(0.996264)" xlink:href="#CMSS17-99"/>
     </g>
    </g>
   </g>
   <g id="line2d_12">
    <path clip-path="url(#p4297f3ac17)" d="M 69.359813 224.396886 
L 70.888567 206.150688 
L 72.417321 199.105442 
L 73.946074 194.419895 
L 75.474828 190.885969 
L 77.003582 188.054694 
L 78.532336 185.704069 
L 80.06109 183.706279 
L 81.589843 181.980282 
L 83.118597 180.471121 
L 84.647351 179.13963 
L 87.704859 176.900528 
L 90.762366 175.101788 
L 93.819874 173.641594 
L 96.877381 172.451096 
L 99.934889 171.481329 
L 102.992397 170.696099 
L 107.578658 169.805603 
L 112.164919 169.200183 
L 116.751181 168.829785 
L 121.337442 168.657019 
L 127.452457 168.685327 
L 133.567472 168.962593 
L 139.682488 169.44979 
L 147.326257 170.308743 
L 154.970026 171.403712 
L 164.142548 172.980823 
L 173.315071 174.801892 
L 182.487594 176.831388 
L 193.18887 179.425587 
L 205.418901 182.646776 
L 217.648931 186.102619 
L 231.407715 190.231334 
L 246.695253 195.076256 
L 261.982791 200.154907 
L 278.799083 205.974905 
L 297.144128 212.566082 
L 317.017928 219.953778 
L 338.420481 228.159303 
L 361.351788 237.200442 
L 373.581818 242.116364 
L 373.581818 242.116364 
" style="fill:none;stroke:#1f77b4;stroke-linecap:square;stroke-width:1.5;"/>
   </g>
   <g id="line2d_13">
    <path clip-path="url(#p4297f3ac17)" d="M 102.35122 252 
L 102.35122 34.56 
" style="fill:none;stroke:#1f77b4;stroke-dasharray:5.55,2.4;stroke-dashoffset:0;stroke-width:1.5;"/>
   </g>
   <g id="line2d_14">
    <path clip-path="url(#p4297f3ac17)" d="M 69.359813 232.429017 
L 70.888567 219.733202 
L 72.417321 213.794907 
L 73.946074 209.363741 
L 75.474828 205.693348 
L 77.003582 202.49796 
L 78.532336 199.634222 
L 81.589843 194.595437 
L 84.647351 190.193063 
L 87.704859 186.234532 
L 90.762366 182.60754 
L 93.819874 179.239973 
L 98.406135 174.570779 
L 102.992397 170.263608 
L 107.578658 166.24365 
L 113.693673 161.241217 
L 119.808688 156.570256 
L 125.923703 152.169957 
L 133.567472 146.983598 
L 141.211241 142.088268 
L 148.85501 137.43702 
L 158.027533 132.128157 
L 167.200056 127.073508 
L 177.901332 121.449886 
L 188.602609 116.079572 
L 200.832639 110.208743 
L 213.06267 104.584438 
L 226.821454 98.512892 
L 240.580238 92.67823 
L 255.867776 86.438596 
L 272.684068 79.835001 
L 289.500359 73.471242 
L 307.845405 66.770627 
L 327.719204 59.76384 
L 347.593004 52.9902 
L 368.995557 45.928053 
L 373.581818 44.443636 
L 373.581818 44.443636 
" style="fill:none;stroke:#ff7f0e;stroke-linecap:square;stroke-width:1.5;"/>
   </g>
   <g id="line2d_15">
    <defs>
     <path d="M 0 -3 
L -0.673542 -0.927051 
L -2.85317 -0.927051 
L -1.089814 0.354102 
L -1.763356 2.427051 
L -0 1.145898 
L 1.763356 2.427051 
L 1.089814 0.354102 
L 2.85317 -0.927051 
L 0.673542 -0.927051 
z
" id="m14ba146513" style="stroke:#ff0000;stroke-linejoin:bevel;"/>
    </defs>
    <g clip-path="url(#p4297f3ac17)">
     <use style="fill:#ff0000;stroke:#ff0000;stroke-linejoin:bevel;" x="102.35122" xlink:href="#m14ba146513" y="170.846943"/>
    </g>
   </g>
   <g id="line2d_16">
    <path clip-path="url(#p4297f3ac17)" d="M 80.811117 207.385045 
L 81.852104 206.769501 
L 82.913977 206.213745 
L 83.996057 205.712947 
L 85.097734 205.262868 
L 86.218458 204.85975 
L 87.357723 204.500241 
L 88.515061 204.181328 
L 89.690029 203.900289 
L 90.882211 203.654651 
L 92.091204 203.442154 
L 93.316622 203.260728 
L 94.558086 203.108467 
L 95.815227 202.983611 
L 97.087678 202.884528 
L 98.375078 202.809704 
L 99.677068 202.757726 
L 100.99329 202.727276 
L 102.323384 202.717122 
L 103.666993 202.726107 
L 105.023756 202.753145 
L 106.393315 202.797215 
L 107.775305 202.857356 
L 109.169365 202.93266 
L 110.57513 203.02227 
L 111.992232 203.125377 
L 113.420306 203.241214 
L 114.858982 203.369055 
L 116.307891 203.508213 
L 117.766662 203.658033 
L 119.234924 203.817898 
L 120.712307 203.987217 
L 122.198439 204.165431 
L 123.69295 204.352008 
L 125.195468 204.546442 
L 126.705625 204.748251 
L 128.223051 204.956975 
L 129.747379 205.172178 
L 131.278245 205.393444 
L 132.815283 205.620374 
L 134.358132 205.852591 
L 135.906432 206.089733 
L 137.459828 206.331456 
L 139.017965 206.577432 
L 140.580491 206.827347 
L 142.147059 207.080902 
L 143.717325 207.337812 
L 145.290947 207.597804 
L 146.86759 207.860619 
L 148.446919 208.126008 
L 150.028606 208.393734 
L 151.612325 208.663572 
L 153.197758 208.935305 
L 154.784587 209.208728 
L 156.372502 209.483644 
L 157.961195 209.759866 
L 159.550366 210.037214 
L 161.139717 210.315519 
L 162.728957 210.594617 
L 164.317799 210.874352 
L 165.90596 211.154578 
L 167.493166 211.435152 
L 169.079144 211.71594 
L 170.663628 211.996814 
L 172.246357 212.277651 
L 173.827077 212.558336 
L 175.405536 212.838757 
L 176.981491 213.118809 
L 178.554702 213.398392 
L 180.124935 213.67741 
L 181.69196 213.955772 
L 183.255556 214.233393 
L 184.815503 214.51019 
L 186.371589 214.786087 
L 187.923607 215.061008 
L 189.471354 215.334884 
L 191.014634 215.60765 
L 192.553255 215.879241 
L 194.08703 216.1496 
L 195.615779 216.418669 
L 197.139325 216.686396 
L 198.657496 216.952731 
L 200.170126 217.217626 
L 201.677055 217.481038 
L 203.178126 217.742925 
L 204.673187 218.003246 
L 206.162091 218.261966 
L 207.644697 218.51905 
L 209.120868 218.774466 
L 210.590471 219.028183 
L 212.053377 219.280173 
L 213.509463 219.530411 
L 214.95861 219.778872 
L 216.400704 220.025534 
L 217.835633 220.270376 
L 219.263291 220.513379 
L 220.683577 220.754526 
L 222.096392 220.9938 
L 223.501642 221.231188 
L 224.899238 221.466676 
" style="fill:none;stroke:#000000;stroke-linecap:square;stroke-width:1.5;"/>
   </g>
   <g id="line2d_17">
    <path clip-path="url(#p4297f3ac17)" d="M 80.811117 184.230832 
L 80.820652 184.044009 
L 80.828903 183.856778 
L 80.835855 183.669109 
L 80.841494 183.480972 
L 80.845807 183.292339 
L 80.848778 183.103179 
L 80.850393 182.913461 
L 80.850636 182.723154 
L 80.849492 182.532225 
L 80.846944 182.340642 
L 80.842977 182.14837 
L 80.837573 181.955374 
L 80.830715 181.76162 
L 80.822386 181.56707 
L 80.812567 181.371687 
L 80.80124 181.175433 
L 80.788386 180.978268 
L 80.773986 180.780152 
L 80.758019 180.581043 
L 80.740465 180.380897 
L 80.721302 180.179671 
L 80.70051 179.977318 
L 80.678066 179.773793 
L 80.653946 179.569045 
L 80.628129 179.363026 
L 80.600588 179.155682 
L 80.571301 178.946962 
L 80.54024 178.736809 
L 80.507379 178.525165 
L 80.472692 178.311972 
L 80.436151 178.097168 
L 80.397726 177.880688 
L 80.357388 177.662467 
L 80.315107 177.442436 
L 80.27085 177.220522 
L 80.224586 176.996652 
L 80.176279 176.770749 
L 80.125897 176.54273 
L 80.073401 176.312511 
L 80.018757 176.080006 
L 79.961923 175.845122 
L 79.902862 175.607762 
L 79.841531 175.367826 
L 79.777888 175.125209 
L 79.711889 174.8798 
L 79.643486 174.631485 
L 79.572633 174.380139 
L 79.499279 174.125637 
L 79.423374 173.867844 
L 79.344863 173.606616 
L 79.263689 173.341805 
L 79.179796 173.073253 
L 79.093123 172.800792 
L 79.003605 172.524246 
L 78.911177 172.243426 
L 78.815769 171.958134 
L 78.717309 171.668157 
L 78.615721 171.37327 
L 78.510926 171.073233 
L 78.402841 170.767787 
L 78.291377 170.45666 
L 78.176444 170.139556 
L 78.057943 169.816159 
L 77.935774 169.486128 
L 77.809827 169.149097 
L 77.679989 168.804668 
L 77.54614 168.452413 
L 77.408152 168.091865 
L 77.265888 167.722518 
L 77.119205 167.343817 
L 76.967948 166.955157 
L 76.811952 166.55587 
L 76.651043 166.145224 
L 76.48503 165.722408 
L 76.313711 165.286522 
L 76.136867 164.836564 
L 75.95426 164.371409 
L 75.765633 163.889791 
L 75.570707 163.390284 
L 75.369174 162.871257 
L 75.160699 162.33085 
L 74.944912 161.76691 
L 74.721402 161.17694 
L 74.489709 160.558005 
L 74.249322 159.906636 
L 73.999659 159.218668 
L 73.740057 158.489047 
L 73.469756 157.71155 
L 73.187867 156.878366 
L 72.893346 155.979498 
L 72.584938 155.00182 
L 72.261109 153.927555 
L 71.919938 152.731684 
L 71.558937 151.37715 
L 71.174744 149.805169 
L 70.762521 147.912724 
L 70.314597 145.488223 
L 69.816405 141.942029 
L 69.218182 129.970181 
" style="fill:none;stroke:#000000;stroke-linecap:square;stroke-width:1.5;"/>
   </g>
   <g id="patch_3">
    <path d="M 54 252 
L 54 34.56 
" style="fill:none;stroke:#000000;stroke-linecap:square;stroke-linejoin:miter;stroke-width:0.8;"/>
   </g>
   <g id="patch_4">
    <path d="M 388.8 252 
L 388.8 34.56 
" style="fill:none;stroke:#000000;stroke-linecap:square;stroke-linejoin:miter;stroke-width:0.8;"/>
   </g>
   <g id="patch_5">
    <path d="M 54 252 
L 388.8 252 
" style="fill:none;stroke:#000000;stroke-linecap:square;stroke-linejoin:miter;stroke-width:0.8;"/>
   </g>
   <g id="patch_6">
    <path d="M 54 34.56 
L 388.8 34.56 
" style="fill:none;stroke:#000000;stroke-linecap:square;stroke-linejoin:miter;stroke-width:0.8;"/>
   </g>
   <g id="text_14">
    <!-- Transition to the Steady State -->
    <defs>
     <path d="M 36.203125 62.296875 
L 44.5 62.296875 
C 45.703125 62.296875 46.90625 62.1875 48.09375 62.1875 
L 60.59375 62.1875 
L 60.59375 68.6875 
L 3.40625 68.6875 
L 3.40625 62.1875 
L 15.90625 62.1875 
C 17.09375 62.1875 18.296875 62.296875 19.5 62.296875 
L 27.796875 62.296875 
L 27.796875 0 
L 36.203125 0 
z
" id="CMSS17-84"/>
     <path d="M 14.90625 21.390625 
C 14.90625 30.84375 21.796875 37.171875 30.59375 37.375 
L 30.59375 44 
C 24.203125 43.890625 18.203125 40.6875 14.59375 35.46875 
L 14.59375 43.484375 
L 7.5 43.484375 
L 7.5 0 
L 14.90625 0 
z
" id="CMSS17-114"/>
     <path d="M 37.59375 27.953125 
C 37.59375 37.484375 30.90625 44 21.90625 44 
C 17.5 44 12.703125 43.1875 7.203125 39.984375 
L 7.796875 33.328125 
C 10.296875 35.15625 14.59375 38.09375 21.796875 38.09375 
C 26.90625 38.09375 30 34.140625 30 27.84375 
L 30 24 
C 14 23.5 4 18.890625 4 11.109375 
C 4 7.0625 6.5 -1 14.796875 -1 
C 16.296875 -1 24.40625 -0.8125 30.203125 3.5 
L 30.203125 -0.203125 
L 37.59375 -0.203125 
z
M 30 12.875 
C 30 11.109375 30 8.734375 27 6.96875 
C 24.40625 5.296875 21.09375 5.09375 19.703125 5.09375 
C 14.703125 5.09375 11.296875 7.859375 11.296875 11.296875 
C 11.296875 18.203125 26.90625 18.890625 30 19 
z
" id="CMSS17-97"/>
     <path d="M 40.90625 29.34375 
C 40.90625 35.671875 39.40625 44 28.09375 44 
C 21.703125 44 17.5 40.6875 14.703125 37.28125 
L 14.703125 43.484375 
L 7.40625 43.484375 
L 7.40625 0 
L 15 0 
L 15 24.3125 
C 15 30.65625 17.40625 37.890625 24.203125 37.890625 
C 33 37.890625 33.296875 31.953125 33.296875 28.53125 
L 33.296875 0 
L 40.90625 0 
z
" id="CMSS17-110"/>
     <path d="M 32.203125 40.984375 
C 26.296875 43.796875 21.703125 44 18.703125 44 
C 11.59375 44 3.09375 41.484375 3.09375 31.390625 
C 3.09375 21.296875 14.09375 19.09375 17.09375 18.484375 
C 21.703125 17.59375 26.796875 16.59375 26.796875 11.59375 
C 26.796875 5.296875 19.59375 5.296875 18.296875 5.296875 
C 14.296875 5.296875 8.796875 6.390625 3.796875 9.984375 
L 2.59375 3.296875 
C 8.296875 0 13.796875 -1 18.40625 -1 
C 30.703125 -1 33.796875 6.5 33.796875 12.1875 
C 33.796875 17.09375 31 20.390625 29.09375 21.890625 
C 25.796875 24.484375 24.59375 24.796875 16.40625 26.484375 
C 15 26.6875 10.09375 27.796875 10.09375 32.296875 
C 10.09375 37.984375 16.40625 37.984375 17.796875 37.984375 
C 24.296875 37.984375 28.296875 35.984375 31 34.484375 
z
" id="CMSS17-115"/>
     <path d="M 15.296875 66 
L 6.90625 66 
L 6.90625 57.59375 
L 15.296875 57.59375 
z
M 14.796875 43 
L 7.40625 43 
L 7.40625 0 
L 14.796875 0 
z
" id="CMSS17-105"/>
     <path d="M 16.703125 37.1875 
L 29.703125 37.1875 
L 29.703125 43 
L 16.703125 43 
L 16.703125 55 
L 9.59375 55 
L 9.59375 43 
L 1.703125 43 
L 1.703125 37.1875 
L 9.40625 37.1875 
L 9.40625 11.734375 
C 9.40625 6 10.703125 -1 17.296875 -1 
C 22.296875 -1 26.90625 0.390625 31.296875 2.6875 
L 29.703125 8.609375 
C 27.296875 6.5 24.40625 5.296875 21.296875 5.296875 
C 16.90625 5.296875 16.703125 10.921875 16.703125 13.4375 
z
" id="CMSS17-116"/>
     <path d="M 44.203125 21.1875 
C 44.203125 33.984375 34.703125 44 23.5 44 
C 12 44 2.703125 33.6875 2.703125 21.1875 
C 2.703125 8.5 12.296875 -1 23.40625 -1 
C 34.796875 -1 44.203125 8.796875 44.203125 21.1875 
z
M 23.5 5.296875 
C 16.40625 5.296875 10.296875 11.09375 10.296875 21.984375 
C 10.296875 33.59375 17.40625 37.890625 23.40625 37.890625 
C 29.90625 37.890625 36.59375 33.1875 36.59375 21.984375 
C 36.59375 10.6875 30.09375 5.296875 23.5 5.296875 
z
" id="CMSS17-111"/>
     <path d="M 40.90625 29.34375 
C 40.90625 35.671875 39.40625 44 28.09375 44 
C 21.796875 44 17.703125 40.890625 14.796875 37.484375 
L 14.796875 69 
L 7.40625 69 
L 7.40625 0 
L 15 0 
L 15 24.3125 
C 15 30.65625 17.40625 37.890625 24.203125 37.890625 
C 33 37.890625 33.296875 31.953125 33.296875 28.53125 
L 33.296875 0 
L 40.90625 0 
z
" id="CMSS17-104"/>
     <path d="M 39.09375 21.484375 
C 39.09375 24.796875 38.90625 31.265625 35.703125 36.671875 
C 32.203125 42.390625 26.5 44 22.203125 44 
C 11.796875 44 3 34.125 3 21.296875 
C 3 9.046875 12.09375 -1 23.59375 -1 
C 28.09375 -1 33.59375 0.296875 38.59375 3.890625 
C 38.59375 4.296875 38.40625 6.46875 38.296875 6.578125 
C 38.296875 6.765625 38 9.828125 38 10.234375 
C 33.203125 6.375 27.703125 5.09375 23.703125 5.09375 
C 17.296875 5.09375 10.40625 10.421875 10.09375 21.484375 
z
M 10.90625 27 
C 12.203125 32.59375 16.59375 37.890625 22.203125 37.890625 
C 23.703125 37.890625 30.703125 37.6875 32.5 27 
z
" id="CMSS17-101"/>
     <path d="M 43.703125 66.09375 
C 39.296875 68.6875 34.5 71 26.40625 71 
C 13.5 71 5.203125 61.46875 5.203125 51.703125 
C 5.203125 47.875 6.296875 43.546875 10.203125 39.125 
C 14.09375 34.6875 18.5 33.484375 24.09375 32.078125 
C 26.40625 31.46875 30.296875 30.359375 31 30.0625 
C 36.59375 27.84375 39.296875 22.71875 39.296875 17.875 
C 39.296875 11.53125 34.40625 4.796875 25.703125 4.796875 
C 22.703125 4.796875 13.90625 5.296875 5.59375 12.953125 
L 4.203125 5 
C 12.40625 -1 21.296875 -2 25.796875 -2 
C 38.09375 -2 46.90625 7.71875 46.90625 18.78125 
C 46.90625 22.8125 45.703125 27.953125 41.5 32.6875 
C 37.40625 37.203125 33.796875 38.21875 25.59375 40.4375 
C 20.90625 41.640625 17.90625 42.453125 15.40625 45.5625 
C 13.703125 47.78125 12.796875 49.890625 12.796875 52.609375 
C 12.796875 58.25 17.59375 64.390625 26.40625 64.390625 
C 30.796875 64.390625 36.5 63.484375 42.296875 58.046875 
z
" id="CMSS17-83"/>
     <path d="M 40.796875 69 
L 33.40625 69 
L 33.40625 38.984375 
C 30.296875 41.59375 25.203125 44 19.59375 44 
C 10.5 44 3.296875 34.046875 3.296875 21.484375 
C 3.296875 8.9375 10.40625 -1 19.296875 -1 
C 26.203125 -1 30.796875 2.6875 33.203125 4.796875 
L 33.203125 -0.203125 
L 40.796875 -0.203125 
z
M 33.203125 13.296875 
C 33.203125 11.875 33.203125 10.359375 30.09375 7.625 
C 28.09375 5.90625 25.703125 5.09375 23.40625 5.09375 
C 18 5.09375 10.90625 9.140625 10.90625 21.390625 
C 10.90625 34.140625 18.90625 37.890625 24.40625 37.890625 
C 28.09375 37.890625 31.09375 36.0625 33.203125 33.03125 
z
" id="CMSS17-100"/>
     <path d="M 41.796875 43 
L 34 43 
C 25.5 20.203125 22.59375 10.953125 22.40625 5.984375 
L 22.296875 5.984375 
C 22 10.859375 17.59375 22.796875 14.09375 31.34375 
L 9.40625 43 
L 1.296875 43 
L 19 0.21875 
C 17.90625 -2.765625 16.296875 -7.25 15.796875 -8.234375 
C 13.59375 -13.8125 12.09375 -13.8125 10.5 -13.8125 
C 10.09375 -13.8125 6.90625 -13.703125 3.296875 -12.609375 
L 3.90625 -19.203125 
C 6.40625 -19.703125 8.90625 -20 10.703125 -20 
C 13.203125 -20 18.203125 -20 22.796875 -7.734375 
z
" id="CMSS17-121"/>
    </defs>
    <g transform="translate(147.170191 28.56)scale(0.12 -0.12)">
     <use transform="scale(0.996264)" xlink:href="#CMSS17-84"/>
     <use transform="translate(56.012199 0)scale(0.996264)" xlink:href="#CMSS17-114"/>
     <use transform="translate(87.921971 0)scale(0.996264)" xlink:href="#CMSS17-97"/>
     <use transform="translate(132.843892 0)scale(0.996264)" xlink:href="#CMSS17-110"/>
     <use transform="translate(181.048835 0)scale(0.996264)" xlink:href="#CMSS17-115"/>
     <use transform="translate(216.962377 0)scale(0.996264)" xlink:href="#CMSS17-105"/>
     <use transform="translate(239.1431 0)scale(0.996264)" xlink:href="#CMSS17-116"/>
     <use transform="translate(272.974667 0)scale(0.996264)" xlink:href="#CMSS17-105"/>
     <use transform="translate(295.15539 0)scale(0.996264)" xlink:href="#CMSS17-111"/>
     <use transform="translate(341.999013 0)scale(0.996264)" xlink:href="#CMSS17-110"/>
     <use transform="translate(421.433069 0)scale(0.996264)" xlink:href="#CMSS17-116"/>
     <use transform="translate(455.264636 0)scale(0.996264)" xlink:href="#CMSS17-111"/>
     <use transform="translate(533.337372 0)scale(0.996264)" xlink:href="#CMSS17-116"/>
     <use transform="translate(567.168939 0)scale(0.996264)" xlink:href="#CMSS17-104"/>
     <use transform="translate(615.373882 0)scale(0.996264)" xlink:href="#CMSS17-101"/>
     <use transform="translate(688.241817 0)scale(0.996264)" xlink:href="#CMSS17-83"/>
     <use transform="translate(740.290333 0)scale(0.996264)" xlink:href="#CMSS17-116"/>
     <use transform="translate(774.121899 0)scale(0.996264)" xlink:href="#CMSS17-101"/>
     <use transform="translate(815.760722 0)scale(0.996264)" xlink:href="#CMSS17-97"/>
     <use transform="translate(860.682642 0)scale(0.996264)" xlink:href="#CMSS17-100"/>
     <use transform="translate(908.887585 0)scale(0.996264)" xlink:href="#CMSS17-121"/>
     <use transform="translate(983.11684 0)scale(0.996264)" xlink:href="#CMSS17-83"/>
     <use transform="translate(1035.165356 0)scale(0.996264)" xlink:href="#CMSS17-116"/>
     <use transform="translate(1068.996923 0)scale(0.996264)" xlink:href="#CMSS17-97"/>
     <use transform="translate(1113.918843 0)scale(0.996264)" xlink:href="#CMSS17-116"/>
     <use transform="translate(1147.75041 0)scale(0.996264)" xlink:href="#CMSS17-101"/>
    </g>
   </g>
   <g id="legend_1">
    <g id="patch_7">
     <path d="M 298.160245 172.827107 
L 381.8 172.827107 
Q 383.8 172.827107 383.8 170.827107 
L 383.8 115.732893 
Q 383.8 113.732893 381.8 113.732893 
L 298.160245 113.732893 
Q 296.160245 113.732893 296.160245 115.732893 
L 296.160245 170.827107 
Q 296.160245 172.827107 298.160245 172.827107 
z
" style="fill:#ffffff;opacity:0.8;stroke:#cccccc;stroke-linejoin:miter;"/>
    </g>
    <g id="line2d_18">
     <path d="M 300.160245 121.578394 
L 320.160245 121.578394 
" style="fill:none;stroke:#1f77b4;stroke-linecap:square;stroke-width:1.5;"/>
    </g>
    <g id="line2d_19"/>
    <g id="text_15">
     <!-- $\dot{k}=0$ locus -->
     <defs>
      <path d="M 16.5 61.890625 
C 16.5 64.296875 14.59375 66 12.5 66 
C 10.09375 66 8.40625 64.09375 8.40625 61.890625 
C 8.40625 59.484375 10.296875 57.796875 12.40625 57.796875 
C 14.796875 57.796875 16.5 59.6875 16.5 61.890625 
z
" id="CMR17-95"/>
      <path d="M 28.09375 66.484375 
C 28.203125 66.890625 28.40625 67.484375 28.40625 67.984375 
C 28.40625 69 27.40625 69 27.203125 69 
C 27.09375 69 23.5 68.6875 21.703125 68.484375 
C 20 68.390625 18.5 68.1875 16.703125 68.09375 
C 14.296875 67.890625 13.59375 67.796875 13.59375 65.984375 
C 13.59375 64.984375 14.59375 64.984375 15.59375 64.984375 
C 20.703125 64.984375 20.703125 64.109375 20.703125 63.125 
C 20.703125 62.71875 20.703125 62.53125 20.203125 60.75 
L 5.90625 3.90625 
C 5.5 2.390625 5.5 2.203125 5.5 1.59375 
C 5.5 -0.609375 7.203125 -1 8.203125 -1 
C 11 -1 11.59375 1.1875 12.40625 4.296875 
L 17.09375 23.0625 
C 24.296875 22.265625 28.59375 19.25 28.59375 14.4375 
C 28.59375 13.828125 28.59375 13.4375 28.296875 11.921875 
C 27.90625 10.421875 27.90625 9.21875 27.90625 8.71875 
C 27.90625 2.890625 31.703125 -1 36.796875 -1 
C 41.40625 -1 43.796875 3.203125 44.59375 4.609375 
C 46.703125 8.3125 48 13.9375 48 14.328125 
C 48 14.828125 47.59375 15.234375 47 15.234375 
C 46.09375 15.234375 46 14.828125 45.59375 13.234375 
C 44.203125 8.015625 42.09375 1 37 1 
C 35 1 33.703125 2 33.703125 5.8125 
C 33.703125 7.71875 34.09375 9.921875 34.5 11.421875 
C 34.90625 13.234375 34.90625 13.328125 34.90625 14.53125 
C 34.90625 20.453125 29.59375 23.765625 20.40625 24.96875 
C 24 27.171875 27.59375 31.078125 29 32.59375 
C 34.703125 38.984375 38.59375 41.984375 43.203125 41.984375 
C 45.5 41.984375 46.09375 41.484375 46.796875 41 
C 43.09375 40.59375 41.703125 37.984375 41.703125 35.984375 
C 41.703125 33.59375 43.59375 32.796875 45 32.796875 
C 47.703125 32.796875 50.09375 35.09375 50.09375 38.296875 
C 50.09375 41.15625 47.796875 44 43.296875 44 
C 37.796875 44 33.296875 40.296875 26.203125 32.296875 
C 25.203125 31.078125 21.5 27.28125 17.796875 25.875 
z
" id="CMMI12-107"/>
      <path d="M 64.296875 32 
C 65.796875 32 67.296875 32 67.296875 33.6875 
C 67.296875 35.5 65.59375 35.5 63.90625 35.5 
L 8 35.5 
C 6.296875 35.5 4.59375 35.5 4.59375 33.6875 
C 4.59375 32 6.09375 32 7.59375 32 
z
M 63.90625 14.484375 
C 65.59375 14.484375 67.296875 14.484375 67.296875 16.296875 
C 67.296875 18 65.796875 18 64.296875 18 
L 7.59375 18 
C 6.09375 18 4.59375 18 4.59375 16.296875 
C 4.59375 14.484375 6.296875 14.484375 8 14.484375 
z
" id="CMR17-61"/>
      <path d="M 14.796875 69 
L 7.40625 69 
L 7.40625 0 
L 14.796875 0 
z
" id="CMSS17-108"/>
      <path d="M 40.90625 43 
L 33.296875 43 
L 33.296875 15.25 
C 33.296875 7.8125 27.90625 4.796875 22.203125 4.796875 
C 15.59375 4.796875 15 7 15 11.125 
L 15 43 
L 7.40625 43 
L 7.40625 10.625 
C 7.40625 2.796875 10.09375 -1 17 -1 
C 20.40625 -1 28.09375 -0.203125 33.5 4.796875 
L 33.5 -0.203125 
L 40.90625 -0.203125 
z
" id="CMSS17-117"/>
     </defs>
     <g transform="translate(328.160245 125.078394)scale(0.1 -0.1)">
      <use transform="translate(14.604079 26.296621)scale(0.996264)" xlink:href="#CMR17-95"/>
      <use transform="scale(0.996264)" xlink:href="#CMMI12-107"/>
      <use transform="translate(81.753209 0)scale(0.996264)" xlink:href="#CMR17-61"/>
      <use transform="translate(181.142007 0)scale(0.996264)" xlink:href="#CMR17-48"/>
      <use transform="translate(258.061596 0)scale(0.996264)" xlink:href="#CMSS17-108"/>
      <use transform="translate(280.242319 0)scale(0.996264)" xlink:href="#CMSS17-111"/>
      <use transform="translate(329.688382 0)scale(0.996264)" xlink:href="#CMSS17-99"/>
      <use transform="translate(371.327204 0)scale(0.996264)" xlink:href="#CMSS17-117"/>
      <use transform="translate(419.532147 0)scale(0.996264)" xlink:href="#CMSS17-115"/>
     </g>
    </g>
    <g id="line2d_20">
     <path d="M 300.160245 135.515572 
L 320.160245 135.515572 
" style="fill:none;stroke:#1f77b4;stroke-dasharray:5.55,2.4;stroke-dashoffset:0;stroke-width:1.5;"/>
    </g>
    <g id="line2d_21"/>
    <g id="text_16">
     <!-- $\dot{c}=0$ locus -->
     <defs>
      <path d="M 39.09375 38 
C 37.203125 38 36.296875 38 34.90625 36.796875 
C 34.296875 36.296875 33.203125 34.796875 33.203125 33.1875 
C 33.203125 31.1875 34.703125 29.984375 36.59375 29.984375 
C 39 29.984375 41.703125 31.984375 41.703125 35.984375 
C 41.703125 40.484375 37.09375 44 30.203125 44 
C 17.09375 44 4 30.1875 4 15.796875 
C 4 6.96875 9.40625 -1 19.59375 -1 
C 33.203125 -1 41.796875 9.71875 41.796875 11.03125 
C 41.796875 11.640625 41.203125 12.140625 40.796875 12.140625 
C 40.5 12.140625 40.40625 12.046875 39.5 11.125 
C 33.09375 2.515625 23.59375 1 19.796875 1 
C 12.90625 1 10.703125 7.078125 10.703125 12.140625 
C 10.703125 15.6875 12.40625 25.53125 16 32.390625 
C 18.59375 37.09375 24 41.984375 30.296875 41.984375 
C 31.59375 41.984375 37.09375 41.8125 39.09375 38 
z
" id="CMMI12-99"/>
     </defs>
     <g transform="translate(328.160245 139.015572)scale(0.1 -0.1)">
      <use transform="translate(13.975531 0.006461)scale(0.996264)" xlink:href="#CMR17-95"/>
      <use transform="scale(0.996264)" xlink:href="#CMMI12-99"/>
      <use transform="translate(69.657242 0)scale(0.996264)" xlink:href="#CMR17-61"/>
      <use transform="translate(169.04604 0)scale(0.996264)" xlink:href="#CMR17-48"/>
      <use transform="translate(245.965629 0)scale(0.996264)" xlink:href="#CMSS17-108"/>
      <use transform="translate(268.146352 0)scale(0.996264)" xlink:href="#CMSS17-111"/>
      <use transform="translate(317.592415 0)scale(0.996264)" xlink:href="#CMSS17-99"/>
      <use transform="translate(359.231237 0)scale(0.996264)" xlink:href="#CMSS17-117"/>
      <use transform="translate(407.43618 0)scale(0.996264)" xlink:href="#CMSS17-115"/>
     </g>
    </g>
    <g id="line2d_22">
     <path d="M 300.160245 149.452751 
L 320.160245 149.452751 
" style="fill:none;stroke:#ff7f0e;stroke-linecap:square;stroke-width:1.5;"/>
    </g>
    <g id="line2d_23"/>
    <g id="text_17">
     <!-- Saddle path -->
     <defs>
      <path d="M 15.09375 4.296875 
C 18.40625 1.09375 22.90625 -1 27.703125 -1 
C 37 -1 45 8.640625 45 21.59375 
C 45 33.546875 39 44 30.40625 44 
C 25.40625 44 19.40625 42.1875 14.90625 38.59375 
L 14.90625 43.1875 
L 7.5 43.1875 
L 7.5 -20 
L 15.09375 -20 
z
M 15.09375 32.625 
C 15.90625 33.84375 19.296875 37.6875 24.796875 37.6875 
C 31.796875 37.6875 37.40625 30.40625 37.40625 21.59375 
C 37.40625 11.578125 30.59375 5.09375 23.90625 5.09375 
C 21.90625 5.09375 19.796875 5.59375 17.796875 7.3125 
C 15.09375 9.75 15.09375 11.265625 15.09375 12.6875 
z
" id="CMSS17-112"/>
     </defs>
     <g transform="translate(328.160245 152.952751)scale(0.1 -0.1)">
      <use transform="scale(0.996264)" xlink:href="#CMSS17-83"/>
      <use transform="translate(52.048516 0)scale(0.996264)" xlink:href="#CMSS17-97"/>
      <use transform="translate(96.970437 0)scale(0.996264)" xlink:href="#CMSS17-100"/>
      <use transform="translate(145.17538 0)scale(0.996264)" xlink:href="#CMSS17-100"/>
      <use transform="translate(193.380323 0)scale(0.996264)" xlink:href="#CMSS17-108"/>
      <use transform="translate(215.561046 0)scale(0.996264)" xlink:href="#CMSS17-101"/>
      <use transform="translate(288.428981 0)scale(0.996264)" xlink:href="#CMSS17-112"/>
      <use transform="translate(336.633924 0)scale(0.996264)" xlink:href="#CMSS17-97"/>
      <use transform="translate(381.555845 0)scale(0.996264)" xlink:href="#CMSS17-116"/>
      <use transform="translate(415.387411 0)scale(0.996264)" xlink:href="#CMSS17-104"/>
     </g>
    </g>
    <g id="line2d_24"/>
    <g id="line2d_25">
     <g>
      <use style="fill:#ff0000;stroke:#ff0000;stroke-linejoin:bevel;" x="310.160245" xlink:href="#m14ba146513" y="163.389929"/>
     </g>
    </g>
    <g id="text_18">
     <!-- Steady state -->
     <g transform="translate(328.160245 166.889929)scale(0.1 -0.1)">
      <use transform="scale(0.996264)" xlink:href="#CMSS17-83"/>
      <use transform="translate(52.048516 0)scale(0.996264)" xlink:href="#CMSS17-116"/>
      <use transform="translate(85.880083 0)scale(0.996264)" xlink:href="#CMSS17-101"/>
      <use transform="translate(127.518905 0)scale(0.996264)" xlink:href="#CMSS17-97"/>
      <use transform="translate(172.440826 0)scale(0.996264)" xlink:href="#CMSS17-100"/>
      <use transform="translate(220.645769 0)scale(0.996264)" xlink:href="#CMSS17-121"/>
      <use transform="translate(294.875023 0)scale(0.996264)" xlink:href="#CMSS17-115"/>
      <use transform="translate(330.788565 0)scale(0.996264)" xlink:href="#CMSS17-116"/>
      <use transform="translate(364.620132 0)scale(0.996264)" xlink:href="#CMSS17-97"/>
      <use transform="translate(409.542052 0)scale(0.996264)" xlink:href="#CMSS17-116"/>
      <use transform="translate(443.373619 0)scale(0.996264)" xlink:href="#CMSS17-101"/>
     </g>
    </g>
   </g>
  </g>
 </g>
 <defs>
  <clipPath id="p4297f3ac17">
   <rect height="217.44" width="334.8" x="54" y="34.56"/>
  </clipPath>
 </defs>
</svg>
